<svg width="373" height="142" viewBox="0 0 373 142" fill="none" xmlns="http://www.w3.org/2000/svg">
<path d="M111.875 27.0913L100.789 17.3235C100.322 16.8113 99.802 16.3527 99.2318 15.9521L99.0683 15.8084L99.0573 15.8225C95.9597 13.757 91.4938 13.3589 86.1698 15.1317L42.912 29.5416C31.0182 33.5038 19.2288 46.7946 16.713 59.0787L7.56591 103.742C6.33901 109.732 7.54887 114.406 10.4765 117.177L10.4323 117.228L22.7708 127.996L33.4188 115.937L67.875 104.461C79.7673 100.496 91.5586 87.2055 94.074 74.9234L101.453 38.8933L111.875 27.0913Z" fill="#D8D8D8"/>
<path d="M17.7675 41.7949C16.8506 43.8845 16.1397 45.9947 15.713 48.0785L6.56588 92.7414C5.33898 98.7321 6.54884 103.406 9.47646 106.177L9.43229 106.228L21.7708 116.995L32.4188 104.936L66.875 93.4604C68.8954 92.786 70.912 91.8261 72.8803 90.6634L17.7675 41.7949Z" fill="#171F22"/>
<path d="M41.1746 45.8191C41.1746 44.7681 41.9176 43.4801 42.8266 42.9551C43.7366 42.4301 44.4806 42.8591 44.4806 43.9101C44.4806 44.9601 43.7366 46.2481 42.8266 46.7731C41.9186 47.2991 41.1746 46.8691 41.1746 45.8191Z" fill="#25A6E9"/>
<path d="M42.8276 46.7731C41.9186 47.2981 41.1756 46.8691 41.1756 45.8191C41.1756 44.7681 41.9186 43.4801 42.8276 42.9551" fill="#96C0D6"/>
<path d="M48.2196 41.7911C48.2196 40.7401 48.9636 39.4521 49.8726 38.9261C50.7826 38.4011 51.5256 38.8301 51.5256 39.8811C51.5256 40.9321 50.7816 42.2201 49.8726 42.7451C48.9636 43.2691 48.2196 42.8401 48.2196 41.7911Z" fill="#FFA23E"/>
<path d="M49.8736 42.745C48.9646 43.269 48.2206 42.84 48.2206 41.791C48.2206 40.74 48.9646 39.452 49.8736 38.926" fill="#EFD28A"/>
<path d="M55.2646 37.7622C55.2656 36.7112 56.0086 35.4232 56.9186 34.8992C57.8286 34.3742 58.5716 34.8022 58.5706 35.8532C58.5716 36.9032 57.8266 38.1922 56.9186 38.7172C56.0086 39.2412 55.2656 38.8122 55.2646 37.7622Z" fill="#8964E8"/>
<path d="M56.9196 38.7172C56.0096 39.2412 55.2666 38.8132 55.2656 37.7622C55.2666 36.7112 56.0096 35.4232 56.9196 34.8992" fill="#BCA9EC"/>
<path d="M32.0883 71.964C31.3676 71.964 30.6671 71.5898 30.2803 70.9203C29.7031 69.9228 30.0463 68.6484 31.043 68.0721L81.538 38.9184C82.5322 38.3437 83.8107 38.6852 84.3871 39.6827C84.9643 40.6794 84.6212 41.9554 83.6236 42.5318L33.1294 71.6838C32.8006 71.8726 32.4415 71.964 32.0883 71.964Z" fill="#8964E8"/>
<path d="M32.0883 80.3041C31.3676 80.3041 30.6671 79.9316 30.2803 79.2622C29.7031 78.2646 30.0463 76.9894 31.043 76.4131L46.1265 67.7047C47.1215 67.13 48.3976 67.4706 48.9756 68.469C49.5528 69.4665 49.2097 70.7417 48.2122 71.3181L33.1294 80.0264C32.8006 80.216 32.4415 80.3041 32.0883 80.3041Z" fill="#25A6E9"/>
<path d="M54.4691 67.3831C53.7484 67.3831 53.0487 67.0089 52.6603 66.3395C52.0848 65.3428 52.4271 64.0676 53.4263 63.4904L81.538 47.2616C82.5322 46.6844 83.8107 47.025 84.3871 48.0242C84.9643 49.0217 84.6212 50.2961 83.6236 50.8733L55.5102 67.1046C55.1822 67.2933 54.8248 67.3831 54.4691 67.3831Z" fill="#25A6E9"/>
<path d="M32.0883 88.6466C31.3676 88.6466 30.6671 88.2732 30.2803 87.6038C29.7031 86.6054 30.0463 85.3319 31.043 84.7547L81.538 55.6018C82.5322 55.0263 83.8107 55.3669 84.3871 56.3644C84.9643 57.3628 84.6212 58.6388 83.6236 59.2143L33.1294 88.3664C32.8006 88.5568 32.4415 88.6466 32.0883 88.6466Z" fill="#FFA23E"/>
<path d="M47.1719 88.2799C46.4504 88.2799 45.7507 87.9057 45.3639 87.2371C44.7867 86.2396 45.129 84.9644 46.1265 84.388L62.8737 74.7216C63.8645 74.1452 65.1439 74.4867 65.7228 75.4842C66.3 76.4817 65.9569 77.7586 64.9585 78.3341L48.2113 88.0014C47.8841 88.1902 47.5251 88.2799 47.1719 88.2799Z" fill="#17B877"/>
<path d="M32.0883 96.9884C31.3676 96.9884 30.6671 96.615 30.2803 95.9455C29.7031 94.9489 30.0463 93.6728 31.043 93.0964L38.0919 89.0267C39.0869 88.4503 40.3621 88.7918 40.9409 89.791C41.5173 90.7885 41.1742 92.0637 40.1758 92.6392L33.1286 96.7098C32.8006 96.8986 32.4415 96.9884 32.0883 96.9884Z" fill="#17B877"/>
<path d="M70.9798 74.5337C70.2591 74.5337 69.5586 74.1595 69.1718 73.4926C68.5946 72.4942 68.9386 71.2182 69.9361 70.6426L81.538 63.9444C82.5322 63.3672 83.8108 63.7112 84.3871 64.7087C84.9643 65.7062 84.6212 66.9814 83.6237 67.5578L72.0209 74.2552C71.692 74.4448 71.3355 74.5337 70.9798 74.5337Z" fill="#17B877"/>
<path d="M134.176 37.8781H142.816L163.168 71.0941H163.552L163.168 62.2621V37.8781H170.336V83.7021H162.784L141.408 48.8221H141.024L141.408 57.6541V83.7021H134.176V37.8781ZM213.877 84.7261C211.061 84.7261 208.565 84.1288 206.389 82.9341C204.256 81.6968 202.485 80.0541 201.077 78.0061C199.584 80.1821 197.749 81.8461 195.573 82.9981C193.397 84.1501 190.88 84.7261 188.021 84.7261C186.272 84.7261 184.65 84.4488 183.157 83.8941C181.664 83.3821 180.362 82.6568 179.253 81.7181C178.186 80.7368 177.333 79.6061 176.693 78.3261C176.096 77.0035 175.797 75.5528 175.797 73.9741C175.797 72.3101 176.117 70.8168 176.757 69.4941C177.44 68.1715 178.357 67.0621 179.509 66.1661C180.704 65.2701 182.112 64.5875 183.733 64.1181C185.354 63.6061 187.104 63.3501 188.981 63.3501C191.072 63.3501 192.821 63.5635 194.229 63.9901C195.68 64.3741 196.81 64.7581 197.621 65.1421V64.1181C197.621 63.0941 197.408 62.1768 196.981 61.3661C196.597 60.5128 196.064 59.7875 195.381 59.1901C194.698 58.5928 193.888 58.1448 192.949 57.8461C192.053 57.5048 191.114 57.3341 190.133 57.3341C186.848 57.3341 184.544 58.6568 183.221 61.3021L177.269 58.5501C178.378 56.3315 179.978 54.5821 182.069 53.3021C184.202 51.9795 186.869 51.3181 190.069 51.3181C192.757 51.3181 195.082 51.8515 197.045 52.9181C199.008 53.9421 200.608 55.3715 201.845 57.2061C203.168 55.3715 204.81 53.9421 206.773 52.9181C208.778 51.8515 211.018 51.3181 213.493 51.3181C215.925 51.3181 218.101 51.7235 220.021 52.5341C221.941 53.3448 223.562 54.4755 224.885 55.9261C226.208 57.3768 227.21 59.1261 227.893 61.1741C228.618 63.2221 228.981 65.4621 228.981 67.8941C228.981 68.1075 228.981 68.2995 228.981 68.4701C228.938 68.6835 228.917 68.8755 228.917 69.0461C228.874 69.2168 228.853 69.3875 228.853 69.5581H204.661C204.746 71.0515 205.088 72.3528 205.685 73.4621C206.282 74.5715 207.029 75.4888 207.925 76.2141C208.821 76.9395 209.802 77.4728 210.869 77.8141C211.978 78.1555 213.045 78.3261 214.069 78.3261C216.117 78.3261 217.802 77.8355 219.125 76.8541C220.448 75.8728 221.514 74.6568 222.325 73.2061L228.469 76.2141C227.104 78.6461 225.205 80.6728 222.773 82.2941C220.384 83.9155 217.418 84.7261 213.877 84.7261ZM188.853 78.8381C190.005 78.8381 191.114 78.6248 192.181 78.1981C193.248 77.7288 194.165 77.1315 194.933 76.4061C195.744 75.6381 196.384 74.7635 196.853 73.7821C197.365 72.8008 197.621 71.7555 197.621 70.6461C197.45 70.6035 197.173 70.4755 196.789 70.2621C196.362 70.0488 195.829 69.8355 195.189 69.6221C194.592 69.4088 193.866 69.2168 193.013 69.0461C192.202 68.8755 191.306 68.7901 190.325 68.7901C188.106 68.7901 186.336 69.3021 185.013 70.3261C183.69 71.3501 183.029 72.5875 183.029 74.0381C183.029 74.8061 183.2 75.4888 183.541 76.0861C183.882 76.6408 184.309 77.1315 184.821 77.5581C185.376 77.9848 185.994 78.3048 186.677 78.5181C187.402 78.7315 188.128 78.8381 188.853 78.8381ZM221.813 64.1181C221.77 63.4781 221.578 62.7741 221.237 62.0061C220.938 61.1955 220.448 60.4701 219.765 59.8301C219.125 59.1475 218.272 58.5715 217.205 58.1021C216.181 57.6328 214.922 57.3981 213.429 57.3981C211.381 57.3981 209.61 58.0168 208.117 59.2541C206.624 60.4488 205.621 62.0701 205.109 64.1181H221.813ZM246.556 84.7261C244.636 84.7261 242.908 84.4701 241.372 83.9581C239.836 83.4461 238.492 82.7848 237.34 81.9741C236.188 81.1208 235.206 80.1608 234.396 79.0941C233.628 78.0275 233.03 76.9181 232.604 75.7661L239.004 73.0781C239.729 74.9128 240.774 76.2781 242.14 77.1741C243.505 78.0275 244.977 78.4541 246.556 78.4541C248.348 78.4541 249.756 78.0915 250.78 77.3661C251.804 76.6408 252.316 75.8301 252.316 74.9341C252.316 74.0381 251.932 73.2701 251.164 72.6301C250.396 71.9475 248.945 71.3501 246.812 70.8381L242.332 69.7501C241.35 69.5368 240.348 69.2168 239.324 68.7901C238.342 68.3208 237.425 67.7448 236.572 67.0621C235.718 66.3368 235.014 65.4835 234.46 64.5021C233.948 63.4781 233.692 62.2835 233.692 60.9181C233.692 59.3821 234.012 58.0168 234.652 56.8221C235.334 55.6275 236.252 54.6248 237.404 53.8141C238.556 53.0035 239.878 52.3848 241.372 51.9581C242.908 51.5315 244.529 51.3181 246.236 51.3181C247.644 51.3181 248.988 51.4675 250.268 51.7661C251.59 52.0648 252.806 52.5128 253.916 53.1101C255.025 53.7075 256.006 54.4755 256.86 55.4141C257.756 56.3101 258.46 57.3768 258.972 58.6141L252.7 61.2381C252.102 59.8728 251.164 58.8915 249.884 58.2941C248.604 57.6541 247.302 57.3341 245.98 57.3341C245.382 57.3341 244.764 57.4195 244.124 57.5901C243.526 57.7181 242.972 57.9315 242.46 58.2301C241.99 58.4861 241.585 58.8275 241.244 59.2541C240.945 59.6808 240.796 60.1501 240.796 60.6621C240.796 61.5155 241.158 62.1981 241.884 62.7101C242.652 63.1795 243.804 63.6061 245.34 63.9901L250.14 65.2061C253.382 66.0168 255.75 67.2541 257.244 68.9181C258.78 70.5395 259.548 72.4595 259.548 74.6781C259.548 76.0435 259.228 77.3235 258.588 78.5181C257.99 79.7128 257.116 80.7795 255.964 81.7181C254.812 82.6568 253.425 83.3821 251.804 83.8941C250.225 84.4488 248.476 84.7261 246.556 84.7261ZM267.795 58.6141H262.291V52.3421H267.795V42.7421H274.899V52.3421H282.643V58.6141H274.899V72.5661C274.899 73.3341 274.984 74.0381 275.155 74.6781C275.326 75.3181 275.582 75.8515 275.923 76.2781C276.648 77.0888 277.566 77.4941 278.675 77.4941C279.358 77.4941 279.891 77.4515 280.275 77.3661C280.659 77.2381 281.064 77.0675 281.491 76.8541L283.667 83.1261C282.771 83.4675 281.832 83.7235 280.851 83.8941C279.87 84.1075 278.76 84.2141 277.523 84.2141C276.03 84.2141 274.707 83.9795 273.555 83.5101C272.403 83.0408 271.4 82.4008 270.547 81.5901C268.712 79.7555 267.795 77.2595 267.795 74.1021V58.6141ZM292.935 46.7741C291.57 46.7741 290.418 46.3048 289.479 45.3661C288.583 44.4275 288.135 43.2968 288.135 41.9741C288.135 40.6515 288.583 39.5208 289.479 38.5821C290.418 37.6435 291.57 37.1741 292.935 37.1741C294.258 37.1741 295.367 37.6435 296.263 38.5821C297.202 39.5208 297.671 40.6515 297.671 41.9741C297.671 43.2968 297.202 44.4275 296.263 45.3661C295.367 46.3048 294.258 46.7741 292.935 46.7741ZM289.351 83.7021V52.3421H296.455V83.7021H289.351ZM310.872 56.5661H311.256C312.194 55.0728 313.517 53.8355 315.224 52.8541C316.973 51.8301 318.936 51.3181 321.112 51.3181C325.08 51.3181 328.045 52.5128 330.008 54.9021C331.97 57.2488 332.952 60.3848 332.952 64.3101V83.7021H325.848V65.2701C325.848 62.5395 325.208 60.6408 323.928 59.5741C322.69 58.4648 321.048 57.9101 319 57.9101C317.762 57.9101 316.674 58.1661 315.736 58.6781C314.797 59.1901 313.986 59.8941 313.304 60.7901C312.621 61.6435 312.109 62.6461 311.768 63.7981C311.426 64.9075 311.256 66.0808 311.256 67.3181V83.7021H304.152V52.3421H310.872V56.5661ZM346.559 56.5661H346.943C347.882 55.0728 349.204 53.8355 350.911 52.8541C352.66 51.8301 354.623 51.3181 356.799 51.3181C360.767 51.3181 363.732 52.5128 365.695 54.9021C367.658 57.2488 368.639 60.3848 368.639 64.3101V83.7021H361.535V65.2701C361.535 62.5395 360.895 60.6408 359.615 59.5741C358.378 58.4648 356.735 57.9101 354.687 57.9101C353.45 57.9101 352.362 58.1661 351.423 58.6781C350.484 59.1901 349.674 59.8941 348.991 60.7901C348.308 61.6435 347.796 62.6461 347.455 63.7981C347.114 64.9075 346.943 66.0808 346.943 67.3181V83.7021H339.839V52.3421H346.559V56.5661Z" fill="#D8D8D8"/>
</svg>
