<svg width="128" height="128" viewBox="0 0 128 128" fill="none" xmlns="http://www.w3.org/2000/svg">
<path d="M69.333 104H26.666C22.2477 104 18.666 107.582 18.666 112C18.666 116.418 22.2477 120 26.666 120H69.333C73.7513 120 77.333 116.418 77.333 112C77.333 107.582 73.7513 104 69.333 104Z" fill="#8964E8"/>
<path d="M85.334 79.998H77.334C72.9157 79.998 69.334 83.5798 69.334 87.998C69.334 92.4163 72.9157 95.998 77.334 95.998H85.334C89.7523 95.998 93.334 92.4163 93.334 87.998C93.334 83.5798 89.7523 79.998 85.334 79.998Z" fill="#17B877"/>
<path d="M53.333 80H45.333C40.9147 80 37.333 83.5817 37.333 88C37.333 92.4183 40.9147 96 45.333 96H53.333C57.7513 96 61.333 92.4183 61.333 88C61.333 83.5817 57.7513 80 53.333 80Z" fill="#17B877"/>
<path d="M82.667 56H64C59.5817 56 56 59.5817 56 64C56 68.4183 59.5817 72 64 72H82.667C87.0853 72 90.667 68.4183 90.667 64C90.667 59.5817 87.0853 56 82.667 56Z" fill="#FFA23E"/>
<path d="M114.666 63.998C114.666 59.5798 111.084 55.998 106.666 55.998C102.248 55.998 98.666 59.5798 98.666 63.998C98.666 68.4163 102.248 71.998 106.666 71.998C111.084 71.998 114.666 68.4163 114.666 63.998Z" fill="#FFA23E"/>
<path d="M88 32H45.333C40.9147 32 37.333 35.5817 37.333 40C37.333 44.4183 40.9147 48 45.333 48H88C92.4183 48 96 44.4183 96 40C96 35.5817 92.4183 32 88 32Z" fill="#25A6E9"/>
<path d="M69.333 8H50.666C46.2477 8 42.666 11.5817 42.666 16C42.666 20.4183 46.2477 24 50.666 24H69.333C73.7513 24 77.333 20.4183 77.333 16C77.333 11.5817 73.7513 8 69.333 8Z" fill="#8964E8"/>
<path d="M34.666 16C34.666 11.5817 31.0843 8 26.666 8C22.2477 8 18.666 11.5817 18.666 16C18.666 20.4183 22.2477 24 26.666 24C31.0843 24 34.666 20.4183 34.666 16Z" fill="#8964E8"/>
</svg>
