<svg width="114" height="142" viewBox="0 0 114 142" fill="none" xmlns="http://www.w3.org/2000/svg">
<path d="M111.875 27.0913L100.789 17.3235C100.322 16.8113 99.802 16.3527 99.2318 15.9521L99.0683 15.8084L99.0573 15.8225C95.9597 13.757 91.4938 13.3589 86.1698 15.1317L42.912 29.5416C31.0182 33.5038 19.2288 46.7946 16.713 59.0787L7.56591 103.742C6.33901 109.732 7.54887 114.406 10.4765 117.177L10.4323 117.228L22.7708 127.996L33.4188 115.937L67.875 104.461C79.7673 100.496 91.5586 87.2055 94.074 74.9234L101.453 38.8933L111.875 27.0913Z" fill="white"/>
<path d="M17.7675 41.7949C16.8506 43.8845 16.1397 45.9947 15.713 48.0785L6.56588 92.7414C5.33898 98.7321 6.54884 103.406 9.47646 106.177L9.43229 106.228L21.7708 116.995L32.4188 104.936L66.875 93.4604C68.8954 92.786 70.912 91.8261 72.8803 90.6634L17.7675 41.7949Z" fill="#171F22"/>
<path d="M41.1746 45.8191C41.1746 44.7681 41.9176 43.4801 42.8266 42.9551C43.7366 42.4301 44.4806 42.8591 44.4806 43.9101C44.4806 44.9601 43.7366 46.2481 42.8266 46.7731C41.9186 47.2991 41.1746 46.8691 41.1746 45.8191Z" fill="#25A6E9"/>
<path d="M42.8276 46.7731C41.9186 47.2981 41.1756 46.8691 41.1756 45.8191C41.1756 44.7681 41.9186 43.4801 42.8276 42.9551" fill="#96C0D6"/>
<path d="M48.2196 41.7911C48.2196 40.7401 48.9636 39.4521 49.8726 38.9261C50.7826 38.4011 51.5256 38.8301 51.5256 39.8811C51.5256 40.9321 50.7816 42.2201 49.8726 42.7451C48.9636 43.2691 48.2196 42.8401 48.2196 41.7911Z" fill="#FFA23E"/>
<path d="M49.8736 42.745C48.9646 43.269 48.2206 42.84 48.2206 41.791C48.2206 40.74 48.9646 39.452 49.8736 38.926" fill="#EFD28A"/>
<path d="M55.2646 37.7622C55.2656 36.7112 56.0086 35.4232 56.9186 34.8992C57.8286 34.3742 58.5716 34.8022 58.5706 35.8532C58.5716 36.9032 57.8266 38.1922 56.9186 38.7172C56.0086 39.2412 55.2656 38.8122 55.2646 37.7622Z" fill="#8964E8"/>
<path d="M56.9196 38.7172C56.0096 39.2412 55.2666 38.8132 55.2656 37.7622C55.2666 36.7112 56.0096 35.4232 56.9196 34.8992" fill="#BCA9EC"/>
<path d="M32.0883 71.964C31.3676 71.964 30.6671 71.5898 30.2803 70.9203C29.7031 69.9228 30.0463 68.6484 31.043 68.0721L81.538 38.9184C82.5322 38.3437 83.8107 38.6852 84.3871 39.6827C84.9643 40.6794 84.6212 41.9554 83.6236 42.5318L33.1294 71.6838C32.8006 71.8725 32.4415 71.964 32.0883 71.964Z" fill="#8964E8"/>
<path d="M32.0883 80.3041C31.3676 80.3041 30.6671 79.9316 30.2803 79.2622C29.7031 78.2646 30.0463 76.9894 31.043 76.4131L46.1265 67.7047C47.1215 67.13 48.3976 67.4706 48.9756 68.469C49.5528 69.4665 49.2097 70.7417 48.2122 71.3181L33.1294 80.0264C32.8006 80.216 32.4415 80.3041 32.0883 80.3041Z" fill="#25A6E9"/>
<path d="M54.4691 67.3831C53.7484 67.3831 53.0487 67.0089 52.6603 66.3395C52.0848 65.3428 52.4271 64.0676 53.4263 63.4904L81.538 47.2616C82.5322 46.6844 83.8107 47.025 84.3871 48.0242C84.9643 49.0217 84.6212 50.2961 83.6236 50.8733L55.5102 67.1046C55.1822 67.2933 54.8248 67.3831 54.4691 67.3831Z" fill="#25A6E9"/>
<path d="M32.0883 88.6466C31.3676 88.6466 30.6671 88.2732 30.2803 87.6038C29.7031 86.6054 30.0463 85.3319 31.043 84.7547L81.538 55.6018C82.5322 55.0263 83.8107 55.3669 84.3871 56.3644C84.9643 57.3628 84.6212 58.6388 83.6236 59.2143L33.1294 88.3664C32.8006 88.5568 32.4415 88.6466 32.0883 88.6466Z" fill="#FFA23E"/>
<path d="M47.1719 88.2799C46.4504 88.2799 45.7507 87.9057 45.3639 87.2371C44.7867 86.2396 45.129 84.9644 46.1265 84.388L62.8737 74.7216C63.8645 74.1452 65.1439 74.4867 65.7228 75.4842C66.3 76.4817 65.9569 77.7586 64.9585 78.3341L48.2113 88.0014C47.8841 88.1902 47.5251 88.2799 47.1719 88.2799Z" fill="#17B877"/>
<path d="M32.0883 96.9884C31.3676 96.9884 30.6671 96.615 30.2803 95.9455C29.7031 94.9489 30.0463 93.6728 31.043 93.0964L38.0919 89.0267C39.0869 88.4503 40.3621 88.7918 40.9409 89.791C41.5173 90.7885 41.1742 92.0637 40.1758 92.6392L33.1286 96.7098C32.8006 96.8986 32.4415 96.9884 32.0883 96.9884Z" fill="#17B877"/>
<path d="M70.9798 74.5337C70.2591 74.5337 69.5586 74.1595 69.1718 73.4926C68.5946 72.4942 68.9386 71.2182 69.9361 70.6426L81.538 63.9444C82.5322 63.3672 83.8108 63.7112 84.3871 64.7087C84.9643 65.7062 84.6212 66.9814 83.6237 67.5578L72.0209 74.2552C71.692 74.4448 71.3355 74.5337 70.9798 74.5337Z" fill="#17B877"/>
</svg>
