<svg width="84" height="119" viewBox="0 0 84 119" fill="none" xmlns="http://www.w3.org/2000/svg">
<path d="M45.8064 89.7416L61.8919 99.018C63.0841 99.679 64.1332 100.57 64.9782 101.64C65.8233 102.709 66.4475 103.936 66.8147 105.249C67.1819 106.562 67.2848 107.934 67.1174 109.287C66.9499 110.64 66.5155 111.946 65.8393 113.13C65.164 114.308 64.2631 115.341 63.1881 116.17C62.1132 117 60.8852 117.609 59.5745 117.964C58.2638 118.318 56.8961 118.41 55.5497 118.236C54.2032 118.061 52.9043 117.623 51.7275 116.946L35.6419 107.636C34.4635 106.962 33.4303 106.06 32.6017 104.984C31.773 103.908 31.1654 102.679 30.8138 101.368C30.4622 100.056 30.3735 98.6878 30.5529 97.3417C30.7323 95.9956 31.1762 94.6983 31.859 93.5245C33.2214 91.1889 35.4479 89.4829 38.0575 88.7751C40.6672 88.0672 43.4506 88.4144 45.8064 89.7416Z" fill="url(#paint0_linear_43_451)"/>
<path d="M15.5104 35.1035L78.0103 71.2877C79.1899 71.9657 80.2239 72.8701 81.0529 73.9489C81.8819 75.0277 82.4896 76.2596 82.8411 77.574C83.1926 78.8883 83.281 80.2591 83.1012 81.6077C82.9213 82.9563 82.4769 84.2561 81.7933 85.4324C81.1152 86.6076 80.2123 87.6377 79.1361 88.4638C78.0599 89.29 76.8315 89.896 75.521 90.2473C74.2105 90.5986 72.8437 90.6883 71.4985 90.5112C70.1534 90.3341 68.8563 89.8938 67.6814 89.2153L5.18141 53.0311C4.00188 52.3531 2.96791 51.4487 2.1389 50.3699C1.3099 49.2911 0.702198 48.0591 0.350689 46.7448C-0.000819564 45.4305 -0.0892065 44.0596 0.090612 42.7111C0.270431 41.3625 0.714907 40.0627 1.39851 38.8864C2.07654 37.7112 2.97944 36.6811 4.05565 35.855C5.13186 35.0288 6.36029 34.4228 7.67077 34.0715C8.98124 33.7202 10.3481 33.6305 11.6932 33.8076C13.0384 33.9847 14.3354 34.425 15.5104 35.1035Z" fill="url(#paint1_linear_43_451)"/>
<path d="M21.4643 1.38646L72.188 30.6957C73.3659 31.371 74.3991 32.2719 75.2286 33.3468C76.058 34.4218 76.6673 35.6498 77.0217 36.9605C77.3762 38.2711 77.4687 39.6389 77.294 40.9853C77.1193 42.3318 76.6809 43.6306 76.0038 44.8075C75.3257 45.9871 74.4214 47.021 73.3426 47.85C72.2638 48.679 71.0318 49.2867 69.7175 49.6382C68.4032 49.9897 67.0323 50.0781 65.6837 49.8983C64.3351 49.7185 63.0354 49.274 61.8591 48.5904L11.1354 19.3141C8.75414 17.9439 7.01452 15.6842 6.29897 13.0317C5.58343 10.3793 5.95053 7.55122 7.31957 5.16936C8.69524 2.79373 10.9574 1.06108 13.6094 0.351829C16.2614 -0.357424 19.0864 0.0146863 21.4643 1.38646Z" fill="url(#paint2_linear_43_451)"/>
<path d="M21.4643 1.38669C20.2872 0.708481 18.988 0.268769 17.6409 0.0926603C16.2938 -0.0834486 14.9252 0.00749388 13.6133 0.360295C12.3014 0.713097 11.0718 1.32085 9.99471 2.14885C8.91766 2.97685 8.01423 4.00889 7.33602 5.18603C6.65781 6.36318 6.21809 7.66238 6.04198 9.00946C5.86587 10.3565 5.95683 11.7251 6.30963 13.037C6.66243 14.349 7.27018 15.5786 8.09818 16.6556C8.92618 17.7327 9.95821 18.6361 11.1354 19.3143L36.4972 33.9525L46.8262 16.0248L21.4643 1.38669Z" fill="url(#paint3_linear_43_451)"/>
<path d="M47.0264 16.0443C48.2211 16.7317 49.2684 17.6486 50.1081 18.7424C50.9478 19.8362 51.5633 21.0852 51.9193 22.4178C52.2754 23.7503 52.3649 25.1402 52.1828 26.5075C52.0006 27.8748 51.5504 29.1926 50.858 30.3852C50.1713 31.5767 49.2567 32.6211 48.1667 33.4587C47.0766 34.2963 45.8323 34.9107 44.505 35.2669C43.1776 35.6231 41.7932 35.714 40.4307 35.5345C39.0683 35.3549 37.7545 34.9085 36.5645 34.2206C35.3575 33.5365 34.299 32.6182 33.451 31.5196C32.6029 30.4209 31.9823 29.164 31.6255 27.8223C31.2687 26.4807 31.1828 25.0812 31.373 23.706C31.5631 22.3307 32.0254 21.0072 32.7329 19.8129C34.1309 17.4179 36.4212 15.676 39.101 14.9695C41.7807 14.2629 44.6311 14.6495 47.0264 16.0443Z" fill="url(#paint4_linear_43_451)"/>
<path d="M47.0264 16.0443C48.2211 16.7317 49.2684 17.6486 50.1081 18.7424C50.9478 19.8362 51.5633 21.0852 51.9193 22.4178C52.2754 23.7503 52.3649 25.1402 52.1828 26.5075C52.0006 27.8748 51.5504 29.1926 50.858 30.3852C50.1713 31.5767 49.2567 32.6211 48.1667 33.4587C47.0766 34.2963 45.8323 34.9107 44.505 35.2669C43.1776 35.6231 41.7932 35.714 40.4307 35.5345C39.0683 35.3549 37.7545 34.9085 36.5645 34.2206C35.3575 33.5365 34.299 32.6182 33.451 31.5196C32.6029 30.4209 31.9823 29.164 31.6255 27.8223C31.2687 26.4807 31.1828 25.0812 31.373 23.706C31.5631 22.3307 32.0254 21.0072 32.7329 19.8129C34.1309 17.4179 36.4212 15.676 39.101 14.9695C41.7807 14.2629 44.6311 14.6495 47.0264 16.0443Z" fill="url(#paint5_linear_43_451)"/>
<path d="M25.9228 73.8526C27.0606 74.5073 28.058 75.3806 28.8577 76.4223C29.6574 77.4639 30.2436 78.6535 30.5827 79.9226C30.9218 81.1917 31.0071 82.5154 30.8336 83.8176C30.6602 85.1198 30.2314 86.3748 29.572 87.5107C28.9179 88.6454 28.0469 89.64 27.0088 90.4378C25.9706 91.2355 24.7856 91.8207 23.5215 92.1599C22.2573 92.4991 20.9388 92.5857 19.6412 92.4147C18.3436 92.2437 17.0924 91.8185 15.959 91.1634C14.8096 90.5119 13.8015 89.6373 12.9938 88.591C12.1861 87.5447 11.5951 86.3476 11.2553 85.0698C10.9155 83.792 10.8337 82.4593 11.0148 81.1495C11.1959 79.8397 11.6362 78.5792 12.3099 77.4418C13.6414 75.1609 15.8226 73.5019 18.3748 72.829C20.9269 72.1561 23.6415 72.5242 25.9228 73.8526Z" fill="url(#paint6_linear_43_451)"/>
<defs>
<linearGradient id="paint0_linear_43_451" x1="24.8646" y1="112.928" x2="61.1841" y2="98.6561" gradientUnits="userSpaceOnUse">
<stop stop-color="#8964E8"/>
<stop offset="0.91" stop-color="#B89CFF"/>
</linearGradient>
<linearGradient id="paint1_linear_43_451" x1="-3.2683" y1="75.467" x2="78.619" y2="51.4934" gradientUnits="userSpaceOnUse">
<stop stop-color="#FFE1C0"/>
<stop offset="0.504" stop-color="#FFA23E"/>
</linearGradient>
<linearGradient id="paint2_linear_43_451" x1="40.8722" y1="24.4457" x2="65.6419" y2="41.518" gradientUnits="userSpaceOnUse">
<stop stop-color="#004F9E"/>
<stop offset="1" stop-color="#0071B6"/>
</linearGradient>
<linearGradient id="paint3_linear_43_451" x1="1.72483" y1="25.1756" x2="65.4432" y2="3.84372" gradientUnits="userSpaceOnUse">
<stop stop-color="#0496FF"/>
<stop offset="0.91" stop-color="#56CBFF"/>
</linearGradient>
<linearGradient id="paint4_linear_43_451" x1="50.2832" y1="38.7581" x2="37.9166" y2="18.4231" gradientUnits="userSpaceOnUse">
<stop stop-color="#0496FF"/>
<stop offset="0.91" stop-color="#56CBFF"/>
</linearGradient>
<linearGradient id="paint5_linear_43_451" x1="46.0778" y1="29.4577" x2="33.3355" y2="16.72" gradientUnits="userSpaceOnUse">
<stop stop-color="#56CBFF"/>
<stop offset="1" stop-color="#C4FFFF"/>
</linearGradient>
<linearGradient id="paint6_linear_43_451" x1="25.0194" y1="86.6273" x2="12.8839" y2="74.4962" gradientUnits="userSpaceOnUse">
<stop stop-color="#17B877"/>
<stop offset="1" stop-color="#C9FFE9"/>
</linearGradient>
</defs>
</svg>
