<svg width="351" height="82" viewBox="0 0 351 82" fill="none" xmlns="http://www.w3.org/2000/svg">
<path d="M171.619 52.735H192.094C191.902 50.2751 190.889 48.2493 189.056 46.6576C187.271 45.0176 184.859 44.1977 181.821 44.1977C179.313 44.1977 177.118 44.9935 175.237 46.5852C173.356 48.1287 172.15 50.1786 171.619 52.735ZM182.4 75.8871C179.264 75.8871 176.419 75.1877 173.862 73.7889C171.354 72.3901 169.328 70.3884 167.785 67.7838C164.505 73.186 159.537 75.8871 152.881 75.8871C148.974 75.8871 145.694 74.7295 143.041 72.4143C140.436 70.099 139.134 67.205 139.134 63.7322C139.134 60.0665 140.509 57.1484 143.258 54.9778C146.056 52.8073 149.77 51.7221 154.4 51.7221C158.645 51.7221 161.997 52.4456 164.457 53.8926V52.3732C164.457 50.058 163.54 48.1046 161.707 46.5129C159.923 44.8729 157.8 44.053 155.341 44.053C151.434 44.053 148.588 45.717 146.803 49.0451L140.726 46.0788C143.475 40.7731 148.25 38.1202 155.051 38.1202C157.993 38.1202 160.622 38.7473 162.937 40.0013C165.301 41.2554 167.134 43.04 168.436 45.3553C171.668 40.5319 176.177 38.1202 181.965 38.1202C187.223 38.1202 191.395 39.8325 194.482 43.2571C197.617 46.6334 199.185 51.3844 199.185 57.5101L199.112 58.2336H171.113C171.209 61.6582 172.367 64.4557 174.586 66.6262C176.853 68.7485 179.554 69.8096 182.689 69.8096C186.933 69.8096 190.262 67.6874 192.673 63.4428L198.606 66.3368C197.014 69.3273 194.796 71.6666 191.95 73.3548C189.152 75.043 185.969 75.8871 182.4 75.8871ZM146.007 63.8769C146.007 65.6133 146.731 67.0603 148.178 68.2179C149.673 69.3755 151.41 69.9543 153.387 69.9543C156.233 69.9543 158.789 68.9173 161.056 66.8433C163.323 64.721 164.457 62.2852 164.457 59.5359C163.492 58.8124 162.069 58.2095 160.188 57.7272C158.789 57.293 157.222 57.076 155.485 57.076C152.784 57.076 150.517 57.7272 148.684 59.0295C146.9 60.3318 146.007 61.9476 146.007 63.8769Z" fill="#D8D8D8"/>
<path d="M232.728 64.8898C232.728 67.9768 231.378 70.5814 228.677 72.7037C225.975 74.8259 222.575 75.8871 218.475 75.8871C214.906 75.8871 211.771 74.9706 209.07 73.1378C206.369 71.2566 204.439 68.7967 203.282 65.758L209.214 63.2258C210.083 65.348 211.337 67.0121 212.977 68.2179C214.665 69.3755 216.498 69.9543 218.475 69.9543C220.597 69.9543 222.358 69.4961 223.757 68.5797C225.204 67.6633 225.927 66.578 225.927 65.3239C225.927 63.057 224.191 61.3929 220.718 60.3318L214.641 58.8124C207.743 57.076 204.295 53.7479 204.295 48.8281C204.295 45.5964 205.597 43.0159 208.201 41.0866C210.854 39.109 214.231 38.1202 218.33 38.1202C221.466 38.1202 224.287 38.8678 226.795 40.3631C229.352 41.8583 231.136 43.86 232.149 46.3682L226.217 48.8281C225.541 47.3328 224.432 46.1752 222.889 45.3553C221.393 44.4871 219.705 44.053 217.824 44.053C216.088 44.053 214.52 44.4871 213.121 45.3553C211.771 46.2235 211.095 47.2846 211.095 48.5387C211.095 50.5645 213.001 52.0115 216.811 52.8797L222.165 54.2543C229.207 55.9907 232.728 59.5359 232.728 64.8898Z" fill="#D8D8D8"/>
<path d="M252.205 75.3083C249.311 75.3083 246.899 74.4159 244.97 72.6313C243.088 70.8467 242.124 68.3626 242.075 65.1792V45.3553H235.853V39.2778H242.075V28.4253H248.732V39.2778H257.414V45.3553H248.732V63.0087C248.732 65.3722 249.19 66.988 250.106 67.8562C251.023 68.6762 252.06 69.0861 253.217 69.0861C253.748 69.0861 254.254 69.0379 254.737 68.9414C255.267 68.7967 255.75 68.6279 256.184 68.435L258.282 74.3677C256.546 74.9947 254.52 75.3083 252.205 75.3083Z" fill="#D8D8D8"/>
<path d="M271.334 39.2778V74.7295H264.678V39.2778H271.334Z" fill="#D8D8D8"/>
<path d="M279.996 39.2778H286.363V44.1977H286.652C287.665 42.4612 289.209 41.0142 291.283 39.8566C293.405 38.699 295.6 38.1202 297.867 38.1202C302.208 38.1202 305.536 39.3743 307.851 41.8824C310.214 44.3424 311.396 47.8634 311.396 52.4456V74.7295H304.74V52.8797C304.595 47.0917 301.677 44.1977 295.985 44.1977C293.333 44.1977 291.114 45.2829 289.329 47.4534C287.545 49.5757 286.652 52.1321 286.652 55.1225V74.7295H279.996V39.2778Z" fill="#D8D8D8"/>
<path d="M319.209 39.2778H325.576V44.1977H325.866C326.878 42.4612 328.422 41.0142 330.496 39.8566C332.618 38.699 334.813 38.1202 337.08 38.1202C341.421 38.1202 344.749 39.3743 347.064 41.8824C349.428 44.3424 350.609 47.8634 350.609 52.4456V74.7295H343.953V52.8797C343.808 47.0917 340.89 44.1977 335.199 44.1977C332.546 44.1977 330.327 45.2829 328.543 47.4534C326.758 49.5757 325.866 52.1321 325.866 55.1225V74.7295H319.209V39.2778Z" fill="#D8D8D8"/>
<path d="M32.0934 62.1802L43.1494 68.556C43.9688 69.0104 44.6898 69.6229 45.2707 70.3581C45.8515 71.0933 46.2806 71.9365 46.5329 72.8388C46.7853 73.7411 46.856 74.6845 46.741 75.6144C46.6259 76.5442 46.3273 77.442 45.8625 78.2555C45.3984 79.0651 44.7792 79.7753 44.0403 80.3454C43.3014 80.9155 42.4574 81.3343 41.5566 81.5779C40.6557 81.8215 39.7156 81.885 38.7902 81.765C37.8647 81.6449 36.972 81.3436 36.1631 80.8782L25.107 74.4797C24.2971 74.0159 23.5869 73.3964 23.0174 72.6569C22.4478 71.9174 22.0302 71.0726 21.7885 70.1711C21.5469 69.2695 21.4859 68.3291 21.6092 67.4039C21.7325 66.4787 22.0376 65.5871 22.507 64.7803C23.4433 63.1749 24.9737 62.0023 26.7674 61.5158C28.5611 61.0293 30.4742 61.268 32.0934 62.1802Z" fill="url(#paint0_linear_43_542)"/>
<path d="M11.2701 24.6257L54.228 49.4961C55.0388 49.9622 55.7494 50.5838 56.3192 51.3253C56.889 52.0667 57.3067 52.9135 57.5483 53.8169C57.7899 54.7202 57.8507 55.6625 57.7271 56.5894C57.6035 57.5163 57.298 58.4097 56.8281 59.2182C56.3621 60.0259 55.7415 60.7339 55.0018 61.3018C54.2621 61.8696 53.4178 62.2861 52.517 62.5276C51.6163 62.7691 50.6768 62.8307 49.7523 62.709C48.8277 62.5873 47.9362 62.2846 47.1287 61.8183L4.1707 36.9479C3.35997 36.4819 2.6493 35.8602 2.0795 35.1188C1.50971 34.3773 1.09201 33.5305 0.850413 32.6272C0.608812 31.7238 0.548061 30.7816 0.671655 29.8546C0.795249 28.9277 1.10075 28.0343 1.57061 27.2258C2.03664 26.4181 2.65723 25.7101 3.39694 25.1423C4.13664 24.5744 4.98098 24.1579 5.8817 23.9164C6.78243 23.675 7.7219 23.6133 8.64645 23.735C9.571 23.8567 10.4625 24.1594 11.2701 24.6257Z" fill="url(#paint1_linear_43_542)"/>
<path d="M15.3624 1.451L50.2262 21.596C51.0358 22.0602 51.746 22.6794 52.316 23.4182C52.8861 24.1571 53.305 25.0011 53.5486 25.902C53.7921 26.8029 53.8557 27.7429 53.7357 28.6684C53.6156 29.5939 53.3143 30.4866 52.8489 31.2955C52.3828 32.1062 51.7612 32.8169 51.0198 33.3867C50.2783 33.9565 49.4315 34.3742 48.5281 34.6158C47.6248 34.8574 46.6826 34.9181 45.7556 34.7945C44.8287 34.6709 43.9353 34.3654 43.1268 33.8956L8.26303 13.7732C6.62636 12.8314 5.43067 11.2782 4.93885 9.45512C4.44704 7.63201 4.69936 5.68821 5.64034 4.05109C6.58587 2.41825 8.14072 1.22736 9.9635 0.739869C11.7863 0.25238 13.728 0.508141 15.3624 1.451Z" fill="url(#paint2_linear_43_542)"/>
<path d="M15.3624 1.45088C14.5533 0.984731 13.6603 0.682506 12.7344 0.561461C11.8086 0.440417 10.8679 0.502924 9.96617 0.745414C9.06444 0.987904 8.21931 1.40563 7.47902 1.97474C6.73873 2.54384 6.11778 3.25319 5.65163 4.06227C5.18548 4.87136 4.88325 5.76434 4.7622 6.69022C4.64116 7.6161 4.70367 8.55676 4.94616 9.45849C5.18865 10.3602 5.60638 11.2054 6.17548 11.9456C6.74459 12.6859 7.45394 13.3069 8.26302 13.773L25.6949 23.8342L32.7943 11.5121L15.3624 1.45088Z" fill="url(#paint3_linear_43_542)"/>
<path d="M32.9319 11.5255C33.7531 11.998 34.4729 12.6282 35.05 13.38C35.6272 14.1318 36.0502 14.9903 36.295 15.9062C36.5397 16.8221 36.6012 17.7774 36.476 18.7171C36.3508 19.6569 36.0414 20.5627 35.5655 21.3824C35.0935 22.2014 34.4649 22.9192 33.7157 23.4949C32.9664 24.0706 32.1112 24.4929 31.1989 24.7377C30.2866 24.9825 29.335 25.045 28.3985 24.9216C27.4621 24.7982 26.5591 24.4914 25.7411 24.0186C24.9116 23.5484 24.184 22.9172 23.6011 22.1621C23.0182 21.407 22.5917 20.543 22.3465 19.6209C22.1012 18.6987 22.0422 17.7368 22.1729 16.7916C22.3036 15.8463 22.6213 14.9366 23.1076 14.1158C24.0685 12.4697 25.6427 11.2724 27.4845 10.7867C29.3264 10.3011 31.2855 10.5668 32.9319 11.5255Z" fill="url(#paint4_linear_43_542)"/>
<path d="M32.9319 11.5255C33.7531 11.998 34.4729 12.6282 35.05 13.38C35.6272 14.1318 36.0502 14.9903 36.295 15.9062C36.5397 16.8221 36.6012 17.7774 36.476 18.7171C36.3508 19.6569 36.0414 20.5627 35.5655 21.3824C35.0935 22.2014 34.4649 22.9192 33.7157 23.4949C32.9664 24.0706 32.1112 24.4929 31.1989 24.7377C30.2866 24.9825 29.335 25.045 28.3985 24.9216C27.4621 24.7982 26.5591 24.4914 25.7411 24.0186C24.9116 23.5484 24.184 22.9172 23.6011 22.1621C23.0182 21.407 22.5917 20.543 22.3465 19.6209C22.1012 18.6987 22.0422 17.7368 22.1729 16.7916C22.3036 15.8463 22.6213 14.9366 23.1076 14.1158C24.0685 12.4697 25.6427 11.2724 27.4845 10.7867C29.3264 10.3011 31.2855 10.5668 32.9319 11.5255Z" fill="url(#paint5_linear_43_542)"/>
<path d="M18.4268 51.2588C19.2089 51.7088 19.8944 52.309 20.4441 53.025C20.9937 53.741 21.3967 54.5586 21.6297 55.4309C21.8628 56.3032 21.9214 57.213 21.8022 58.108C21.6829 59.003 21.3882 59.8657 20.935 60.6463C20.4854 61.4263 19.8868 62.1099 19.1732 62.6582C18.4597 63.2065 17.6452 63.6087 16.7763 63.8419C15.9074 64.075 15.0012 64.1345 14.1093 64.017C13.2175 63.8995 12.3575 63.6073 11.5785 63.157C10.7884 62.7091 10.0955 62.1081 9.54038 61.3889C8.98524 60.6697 8.579 59.8469 8.34543 58.9687C8.11187 58.0904 8.05567 57.1744 8.18014 56.2741C8.30461 55.3739 8.60723 54.5075 9.0703 53.7258C9.98548 52.158 11.4847 51.0177 13.2389 50.5552C14.993 50.0927 16.8588 50.3458 18.4268 51.2588Z" fill="url(#paint6_linear_43_542)"/>
<path d="M126.656 72.7811C126.656 73.1272 126.23 73.6597 125.378 74.3786C124.526 75.0708 123.794 75.4169 123.182 75.4169H112.878C109.869 69.9588 105.849 63.7419 100.817 56.7661C95.8114 49.7904 91.2452 43.9462 87.1183 39.2336C87.4644 36.3847 87.9969 31.1928 88.7158 23.6579C88.7957 23.2852 89.2483 22.766 90.0737 22.1004C90.9257 21.4081 91.6312 21.062 92.1904 21.062H102.614C106.155 27.2923 109.936 33.1897 113.956 38.7543C118.003 44.3189 122.716 50.3894 128.094 56.9658C127.402 63.3558 126.923 68.6276 126.656 72.7811ZM125.977 49.9767C124.699 43.4004 123.528 38.2351 122.463 34.481C121.425 30.7003 120.013 27.0926 118.23 23.6579C118.23 23.3118 118.656 22.7926 119.508 22.1004C120.386 21.4081 121.145 21.062 121.784 21.062H134.484C132.7 28.7566 131.036 37.5029 129.492 47.3009C129.492 47.6737 129.066 48.2195 128.214 48.9384C127.362 49.6306 126.616 49.9767 125.977 49.9767ZM89.2749 47.0214C89.9672 52.6126 90.9124 57.2986 92.1105 61.0794C93.3086 64.8335 94.9727 68.7341 97.1027 72.7811C97.1027 73.1272 96.6767 73.6597 95.8247 74.3786C94.9727 75.0708 94.2272 75.4169 93.5882 75.4169H80.8881C82.6719 67.6691 84.2961 59.0825 85.7604 49.6572C85.7604 49.3111 86.1864 48.7919 87.0384 48.0997C87.9171 47.3808 88.6626 47.0214 89.2749 47.0214Z" fill="#D8D8D8"/>
<path d="M271.074 21.9544C271.778 22.3594 272.395 22.8996 272.889 23.544C273.384 24.1883 273.747 24.9242 273.956 25.7093C274.166 26.4943 274.219 27.3131 274.112 28.1187C274.004 28.9242 273.739 29.7006 273.331 30.4032C272.927 31.1051 272.388 31.7204 271.746 32.2139C271.103 32.7074 270.37 33.0693 269.588 33.2792C268.806 33.489 267.991 33.5426 267.188 33.4368C266.385 33.331 265.611 33.068 264.91 32.6628C264.199 32.2597 263.576 31.7187 263.076 31.0715C262.576 30.4242 262.211 29.6837 262.001 28.8933C261.79 28.1029 261.74 27.2784 261.852 26.4682C261.964 25.658 262.236 24.8782 262.653 24.1747C263.477 22.7637 264.826 21.7374 266.405 21.3212C267.983 20.9049 269.663 21.1327 271.074 21.9544Z" fill="url(#paint7_linear_43_542)"/>
<path d="M271.074 21.9544C271.778 22.3594 272.395 22.8996 272.889 23.544C273.384 24.1883 273.747 24.9242 273.956 25.7093C274.166 26.4943 274.219 27.3131 274.112 28.1187C274.004 28.9242 273.739 29.7006 273.331 30.4032C272.927 31.1051 272.388 31.7204 271.746 32.2139C271.103 32.7074 270.37 33.0693 269.588 33.2792C268.806 33.489 267.991 33.5426 267.188 33.4368C266.385 33.331 265.611 33.068 264.91 32.6628C264.199 32.2597 263.576 31.7187 263.076 31.0715C262.576 30.4242 262.211 29.6837 262.001 28.8933C261.79 28.1029 261.74 27.2784 261.852 26.4682C261.964 25.658 262.236 24.8782 262.653 24.1747C263.477 22.7637 264.826 21.7374 266.405 21.3212C267.983 20.9049 269.663 21.1327 271.074 21.9544Z" fill="url(#paint8_linear_43_542)"/>
<defs>
<linearGradient id="paint0_linear_43_542" x1="17.6995" y1="78.1168" x2="42.6629" y2="68.3073" gradientUnits="userSpaceOnUse">
<stop stop-color="#8964E8"/>
<stop offset="0.91" stop-color="#B89CFF"/>
</linearGradient>
<linearGradient id="paint1_linear_43_542" x1="-1.63702" y1="52.3687" x2="54.6464" y2="35.891" gradientUnits="userSpaceOnUse">
<stop stop-color="#FFE1C0"/>
<stop offset="0.504" stop-color="#FFA23E"/>
</linearGradient>
<linearGradient id="paint2_linear_43_542" x1="28.702" y1="17.3002" x2="45.7269" y2="29.0345" gradientUnits="userSpaceOnUse">
<stop stop-color="#004F9E"/>
<stop offset="1" stop-color="#0071B6"/>
</linearGradient>
<linearGradient id="paint3_linear_43_542" x1="1.79491" y1="17.8017" x2="45.5903" y2="3.13967" gradientUnits="userSpaceOnUse">
<stop stop-color="#0496FF"/>
<stop offset="0.91" stop-color="#56CBFF"/>
</linearGradient>
<linearGradient id="paint4_linear_43_542" x1="35.1704" y1="27.1373" x2="26.6705" y2="13.1605" gradientUnits="userSpaceOnUse">
<stop stop-color="#0496FF"/>
<stop offset="0.91" stop-color="#56CBFF"/>
</linearGradient>
<linearGradient id="paint5_linear_43_542" x1="32.2799" y1="20.7449" x2="23.5218" y2="11.9899" gradientUnits="userSpaceOnUse">
<stop stop-color="#56CBFF"/>
<stop offset="1" stop-color="#C4FFFF"/>
</linearGradient>
<linearGradient id="paint6_linear_43_542" x1="17.8059" y1="60.0392" x2="9.4648" y2="51.7011" gradientUnits="userSpaceOnUse">
<stop stop-color="#17B877"/>
<stop offset="1" stop-color="#C9FFE9"/>
</linearGradient>
<linearGradient id="paint7_linear_43_542" x1="272.993" y1="35.3359" x2="265.707" y2="23.3559" gradientUnits="userSpaceOnUse">
<stop stop-color="#0496FF"/>
<stop offset="0.91" stop-color="#56CBFF"/>
</linearGradient>
<linearGradient id="paint8_linear_43_542" x1="270.515" y1="29.8568" x2="263.008" y2="22.3525" gradientUnits="userSpaceOnUse">
<stop stop-color="#56CBFF"/>
<stop offset="1" stop-color="#C4FFFF"/>
</linearGradient>
</defs>
</svg>
