<svg width="152" height="39" viewBox="0 0 152 39" fill="none" xmlns="http://www.w3.org/2000/svg">
<path d="M39.248 31H36.304V8.088H39.888L51.024 25.912H51.152L51.024 21.496V8.088H53.968V31H50.896L39.248 12.312H39.12L39.248 16.728V31ZM71.0765 21.272H80.1325C80.0472 20.184 79.5992 19.288 78.7885 18.584C77.9992 17.8587 76.9325 17.496 75.5885 17.496C74.4792 17.496 73.5085 17.848 72.6765 18.552C71.8445 19.2347 71.3112 20.1413 71.0765 21.272ZM75.8445 31.512C74.4578 31.512 73.1992 31.2027 72.0685 30.584C70.9592 29.9653 70.0632 29.08 69.3805 27.928C67.9298 30.3173 65.7325 31.512 62.7885 31.512C61.0605 31.512 59.6098 31 58.4365 29.976C57.2845 28.952 56.7085 27.672 56.7085 26.136C56.7085 24.5147 57.3165 23.224 58.5325 22.264C59.7698 21.304 61.4125 20.824 63.4605 20.824C65.3378 20.824 66.8205 21.144 67.9085 21.784V21.112C67.9085 20.088 67.5032 19.224 66.6925 18.52C65.9032 17.7947 64.9645 17.432 63.8765 17.432C62.1485 17.432 60.8898 18.168 60.1005 19.64L57.4125 18.328C58.6285 15.9813 60.7405 14.808 63.7485 14.808C65.0498 14.808 66.2125 15.0853 67.2365 15.64C68.2818 16.1947 69.0925 16.984 69.6685 18.008C71.0978 15.8747 73.0925 14.808 75.6525 14.808C77.9778 14.808 79.8232 15.5653 81.1885 17.08C82.5752 18.5733 83.2685 20.6747 83.2685 23.384L83.2365 23.704H70.8525C70.8952 25.2187 71.4072 26.456 72.3885 27.416C73.3912 28.3547 74.5858 28.824 75.9725 28.824C77.8498 28.824 79.3218 27.8853 80.3885 26.008L83.0125 27.288C82.3085 28.6107 81.3272 29.6453 80.0685 30.392C78.8312 31.1387 77.4232 31.512 75.8445 31.512ZM59.7485 26.2C59.7485 26.968 60.0685 27.608 60.7085 28.12C61.3698 28.632 62.1378 28.888 63.0125 28.888C64.2712 28.888 65.4018 28.4293 66.4045 27.512C67.4072 26.5733 67.9085 25.496 67.9085 24.28C67.4818 23.96 66.8525 23.6933 66.0205 23.48C65.4018 23.288 64.7085 23.192 63.9405 23.192C62.7458 23.192 61.7432 23.48 60.9325 24.056C60.1432 24.632 59.7485 25.3467 59.7485 26.2ZM98.1045 26.648C98.1045 28.0133 97.5072 29.1653 96.3125 30.104C95.1178 31.0427 93.6138 31.512 91.8005 31.512C90.2218 31.512 88.8352 31.1067 87.6405 30.296C86.4458 29.464 85.5925 28.376 85.0805 27.032L87.7045 25.912C88.0885 26.8507 88.6432 27.5867 89.3685 28.12C90.1152 28.632 90.9258 28.888 91.8005 28.888C92.7392 28.888 93.5178 28.6853 94.1365 28.28C94.7765 27.8747 95.0965 27.3947 95.0965 26.84C95.0965 25.8373 94.3285 25.1013 92.7925 24.632L90.1045 23.96C87.0538 23.192 85.5285 21.72 85.5285 19.544C85.5285 18.1147 86.1045 16.9733 87.2565 16.12C88.4298 15.2453 89.9232 14.808 91.7365 14.808C93.1232 14.808 94.3712 15.1387 95.4805 15.8C96.6112 16.4613 97.4005 17.3467 97.8485 18.456L95.2245 19.544C94.9258 18.8827 94.4352 18.3707 93.7525 18.008C93.0912 17.624 92.3445 17.432 91.5125 17.432C90.7445 17.432 90.0512 17.624 89.4325 18.008C88.8352 18.392 88.5365 18.8613 88.5365 19.416C88.5365 20.312 89.3792 20.952 91.0645 21.336L93.4325 21.944C96.5472 22.712 98.1045 24.28 98.1045 26.648ZM106.719 31.256C105.439 31.256 104.372 30.8613 103.519 30.072C102.687 29.2827 102.26 28.184 102.239 26.776V18.008H99.4868V15.32H102.239V10.52H105.183V15.32H109.023V18.008H105.183V25.816C105.183 26.8613 105.385 27.576 105.791 27.96C106.196 28.3227 106.655 28.504 107.167 28.504C107.401 28.504 107.625 28.4827 107.839 28.44C108.073 28.376 108.287 28.3013 108.479 28.216L109.407 30.84C108.639 31.1173 107.743 31.256 106.719 31.256ZM115.788 9.912C115.788 10.488 115.585 10.9787 115.18 11.384C114.774 11.7893 114.284 11.992 113.708 11.992C113.132 11.992 112.641 11.7893 112.236 11.384C111.83 10.9787 111.628 10.488 111.628 9.912C111.628 9.336 111.83 8.84533 112.236 8.44C112.641 8.03467 113.132 7.832 113.708 7.832C114.284 7.832 114.774 8.03467 115.18 8.44C115.585 8.84533 115.788 9.336 115.788 9.912ZM115.18 15.32V31H112.236V15.32H115.18ZM119.011 15.32H121.827V17.496H121.955C122.403 16.728 123.085 16.088 124.003 15.576C124.941 15.064 125.912 14.808 126.915 14.808C128.835 14.808 130.307 15.3627 131.331 16.472C132.376 17.56 132.899 19.1173 132.899 21.144V31H129.955V21.336C129.891 18.776 128.6 17.496 126.083 17.496C124.909 17.496 123.928 17.976 123.139 18.936C122.349 19.8747 121.955 21.0053 121.955 22.328V31H119.011V15.32ZM136.355 15.32H139.171V17.496H139.299C139.747 16.728 140.429 16.088 141.347 15.576C142.285 15.064 143.256 14.808 144.259 14.808C146.179 14.808 147.651 15.3627 148.675 16.472C149.72 17.56 150.243 19.1173 150.243 21.144V31H147.299V21.336C147.235 18.776 145.944 17.496 143.427 17.496C142.253 17.496 141.272 17.976 140.483 18.936C139.693 19.8747 139.299 21.0053 139.299 22.328V31H136.355V15.32Z" fill="#D8D8D8"/>
<path d="M13.9251 27.2814L18.8151 30.1014C19.1776 30.3024 19.4965 30.5733 19.7534 30.8984C20.0103 31.2236 20.2 31.5965 20.3117 31.9956C20.4233 32.3947 20.4546 32.812 20.4037 33.2233C20.3528 33.6345 20.2207 34.0316 20.0151 34.3914C19.8099 34.7495 19.536 35.0636 19.2092 35.3157C18.8824 35.5679 18.5091 35.7531 18.1106 35.8609C17.7122 35.9686 17.2964 35.9967 16.8871 35.9436C16.4778 35.8905 16.0829 35.7572 15.7251 35.5514L10.8351 32.7214C10.4769 32.5162 10.1628 32.2422 9.9109 31.9152C9.65899 31.5881 9.47428 31.2145 9.36739 30.8157C9.2605 30.417 9.23355 30.001 9.28808 29.5918C9.34261 29.1826 9.47755 28.7882 9.68514 28.4314C10.0993 27.7214 10.7761 27.2027 11.5695 26.9876C12.3628 26.7724 13.209 26.8779 13.9251 27.2814Z" fill="url(#paint0_linear_39_148)"/>
<path d="M4.71515 10.6715L23.7151 21.6715C24.0737 21.8777 24.3881 22.1526 24.6401 22.4805C24.8921 22.8085 25.0768 23.183 25.1837 23.5826C25.2905 23.9821 25.3174 24.3989 25.2628 24.8088C25.2081 25.2188 25.073 25.6139 24.8651 25.9715C24.659 26.3288 24.3845 26.6419 24.0574 26.8931C23.7302 27.1442 23.3568 27.3285 22.9584 27.4353C22.56 27.5421 22.1445 27.5693 21.7356 27.5155C21.3266 27.4617 20.9323 27.3278 20.5751 27.1215L1.57515 16.1215C1.21657 15.9154 0.902244 15.6405 0.650227 15.3125C0.39821 14.9846 0.213468 14.6101 0.106609 14.2105C-0.000249147 13.8109 -0.0271188 13.3942 0.0275461 12.9842C0.0822109 12.5743 0.217332 12.1791 0.425148 11.8215C0.631267 11.4643 0.90575 11.1511 1.23292 10.9C1.56009 10.6488 1.93353 10.4646 2.33191 10.3578C2.7303 10.251 3.14582 10.2238 3.55474 10.2776C3.96366 10.3314 4.35797 10.4653 4.71515 10.6715Z" fill="url(#paint1_linear_39_148)"/>
<path d="M6.52514 0.421484L21.9451 9.33148C22.3032 9.53677 22.6173 9.81064 22.8695 10.1374C23.1216 10.4642 23.3069 10.8375 23.4146 11.236C23.5223 11.6344 23.5505 12.0502 23.4974 12.4595C23.4443 12.8689 23.311 13.2637 23.1051 13.6215C22.899 13.9801 22.6241 14.2944 22.2961 14.5464C21.9682 14.7984 21.5937 14.9832 21.1941 15.09C20.7946 15.1969 20.3778 15.2238 19.9678 15.1691C19.5579 15.1144 19.1627 14.9793 18.8051 14.7715L3.38514 5.87148C2.66125 5.45495 2.13241 4.768 1.91488 3.96165C1.69735 3.1553 1.80895 2.29557 2.22514 1.57148C2.64334 0.849293 3.33104 0.322569 4.13725 0.106956C4.94345 -0.108657 5.80227 0.00446463 6.52514 0.421484Z" fill="url(#paint2_linear_39_148)"/>
<path d="M6.52516 0.421386C6.16731 0.21521 5.77235 0.0815379 5.36284 0.0280008C4.95333 -0.0255363 4.53728 0.00211018 4.13845 0.109362C3.73963 0.216613 3.36583 0.40137 3.03841 0.653082C2.71098 0.904795 2.43634 1.21853 2.23016 1.57639C2.02399 1.93424 1.89031 2.32919 1.83678 2.73871C1.78324 3.14822 1.81089 3.56427 1.91814 3.96309C2.02539 4.36192 2.21015 4.73572 2.46186 5.06314C2.71357 5.39057 3.02731 5.66521 3.38516 5.87139L11.0952 10.3214L14.2352 4.87139L6.52516 0.421386Z" fill="url(#paint3_linear_39_148)"/>
<path d="M14.2351 4.87141C14.5937 5.07753 14.908 5.35246 15.1601 5.68041C15.4121 6.00837 15.5968 6.38288 15.7037 6.78244C15.8105 7.18199 15.8374 7.59873 15.7827 8.0087C15.7281 8.41867 15.593 8.81381 15.3851 9.17141C15.179 9.52866 14.9045 9.8418 14.5774 10.093C14.2502 10.3441 13.8768 10.5283 13.4784 10.6351C13.08 10.7419 12.6645 10.7692 12.2555 10.7154C11.8466 10.6615 11.4523 10.5277 11.0951 10.3214C10.7329 10.1163 10.4152 9.84095 10.1607 9.51153C9.90614 9.18211 9.71987 8.80523 9.61278 8.40295C9.50569 8.00066 9.47993 7.58106 9.537 7.16869C9.59406 6.75633 9.73282 6.35949 9.94514 6.00141C10.3648 5.28329 11.0521 4.76099 11.8564 4.54913C12.6607 4.33728 13.5162 4.45318 14.2351 4.87141Z" fill="url(#paint4_linear_39_148)"/>
<path d="M14.2351 4.87141C14.5937 5.07753 14.908 5.35246 15.1601 5.68041C15.4121 6.00837 15.5968 6.38288 15.7037 6.78244C15.8105 7.18199 15.8374 7.59873 15.7827 8.0087C15.7281 8.41867 15.593 8.81381 15.3851 9.17141C15.179 9.52866 14.9045 9.8418 14.5774 10.093C14.2502 10.3441 13.8768 10.5283 13.4784 10.6351C13.08 10.7419 12.6645 10.7692 12.2555 10.7154C11.8466 10.6615 11.4523 10.5277 11.0951 10.3214C10.7329 10.1163 10.4152 9.84095 10.1607 9.51153C9.90614 9.18211 9.71987 8.80523 9.61278 8.40295C9.50569 8.00066 9.47993 7.58106 9.537 7.16869C9.59406 6.75633 9.73282 6.35949 9.94514 6.00141C10.3648 5.28329 11.0521 4.76099 11.8564 4.54913C12.6607 4.33728 13.5162 4.45318 14.2351 4.87141Z" fill="url(#paint5_linear_39_148)"/>
<defs>
<linearGradient id="paint0_linear_39_148" x1="7.55883" y1="34.33" x2="18.6" y2="29.9914" gradientUnits="userSpaceOnUse">
<stop stop-color="#8964E8"/>
<stop offset="0.91" stop-color="#B89CFF"/>
</linearGradient>
<linearGradient id="paint1_linear_39_148" x1="-0.993564" y1="22.9421" x2="23.9002" y2="15.6541" gradientUnits="userSpaceOnUse">
<stop stop-color="#FFE1C0"/>
<stop offset="0.504" stop-color="#FFA23E"/>
</linearGradient>
<linearGradient id="paint2_linear_39_148" x1="12.4251" y1="7.43148" x2="19.9551" y2="12.6215" gradientUnits="userSpaceOnUse">
<stop stop-color="#004F9E"/>
<stop offset="1" stop-color="#0071B6"/>
</linearGradient>
<linearGradient id="paint3_linear_39_148" x1="0.524362" y1="7.65322" x2="19.8947" y2="1.16832" gradientUnits="userSpaceOnUse">
<stop stop-color="#0496FF"/>
<stop offset="0.91" stop-color="#56CBFF"/>
</linearGradient>
<linearGradient id="paint4_linear_39_148" x1="15.2126" y1="11.6819" x2="11.5063" y2="5.58145" gradientUnits="userSpaceOnUse">
<stop stop-color="#0496FF"/>
<stop offset="0.91" stop-color="#56CBFF"/>
</linearGradient>
<linearGradient id="paint5_linear_39_148" x1="13.9504" y1="8.8933" x2="10.1298" y2="5.07026" gradientUnits="userSpaceOnUse">
<stop stop-color="#56CBFF"/>
<stop offset="1" stop-color="#C4FFFF"/>
</linearGradient>
</defs>
</svg>
