<svg width="500" height="129" viewBox="0 0 500 129" fill="none" xmlns="http://www.w3.org/2000/svg">
<path d="M129.184 101.5H119.5V26.1316H131.29L167.921 84.7632H168.342L167.921 70.2368V26.1316H177.605V101.5H167.5L129.184 40.0263H128.763L129.184 54.5526V101.5ZM233.883 69.5H263.673C263.392 65.9211 261.918 62.9737 259.252 60.6579C256.655 58.2719 253.146 57.0789 248.725 57.0789C245.076 57.0789 241.883 58.2368 239.146 60.5526C236.41 62.7982 234.655 65.7807 233.883 69.5ZM249.567 103.184C245.006 103.184 240.866 102.167 237.146 100.132C233.497 98.0965 230.55 95.1842 228.304 91.3947C223.532 99.2544 216.304 103.184 206.62 103.184C200.936 103.184 196.164 101.5 192.304 98.1316C188.515 94.7632 186.62 90.5526 186.62 85.5C186.62 80.1667 188.62 75.9211 192.62 72.7632C196.69 69.6053 202.094 68.0263 208.831 68.0263C215.006 68.0263 219.883 69.0789 223.462 71.1842V68.9737C223.462 65.6053 222.129 62.7632 219.462 60.4474C216.866 58.0614 213.778 56.8684 210.199 56.8684C204.515 56.8684 200.374 59.2895 197.778 64.1316L188.936 59.8158C192.936 52.0965 199.883 48.2368 209.778 48.2368C214.059 48.2368 217.883 49.1491 221.252 50.9737C224.69 52.7982 227.357 55.3947 229.252 58.7632C233.953 51.7456 240.515 48.2368 248.936 48.2368C256.585 48.2368 262.655 50.7281 267.146 55.7105C271.708 60.6228 273.989 67.5351 273.989 76.4474L273.883 77.5H233.146C233.287 82.4825 234.971 86.5526 238.199 89.7105C241.497 92.7982 245.427 94.3421 249.989 94.3421C256.164 94.3421 261.006 91.2544 264.515 85.0789L273.146 89.2895C270.831 93.6404 267.603 97.0439 263.462 99.5C259.392 101.956 254.76 103.184 249.567 103.184ZM196.62 85.7105C196.62 88.2368 197.673 90.3421 199.778 92.0263C201.953 93.7105 204.48 94.5526 207.357 94.5526C211.497 94.5526 215.217 93.0439 218.515 90.0263C221.813 86.9386 223.462 83.3947 223.462 79.3947C222.059 78.3421 219.989 77.4649 217.252 76.7632C215.217 76.1316 212.936 75.8158 210.41 75.8158C206.48 75.8158 203.181 76.7632 200.515 78.6579C197.918 80.5526 196.62 82.9035 196.62 85.7105ZM322.791 87.1842C322.791 91.6754 320.826 95.4649 316.896 98.5526C312.967 101.64 308.019 103.184 302.054 103.184C296.861 103.184 292.3 101.851 288.37 99.1842C284.44 96.4474 281.633 92.8684 279.949 88.4474L288.581 84.7632C289.844 87.8509 291.668 90.2719 294.054 92.0263C296.51 93.7105 299.177 94.5526 302.054 94.5526C305.142 94.5526 307.703 93.886 309.739 92.5526C311.844 91.2193 312.896 89.6404 312.896 87.8158C312.896 84.5175 310.37 82.0965 305.317 80.5526L296.475 78.3421C286.44 75.8158 281.423 70.9737 281.423 63.8158C281.423 59.114 283.317 55.3596 287.107 52.5526C290.967 49.6754 295.879 48.2368 301.844 48.2368C306.405 48.2368 310.51 49.3246 314.16 51.5C317.879 53.6754 320.475 56.5877 321.949 60.2368L313.317 63.8158C312.335 61.6404 310.721 59.9561 308.475 58.7632C306.3 57.5 303.844 56.8684 301.107 56.8684C298.581 56.8684 296.3 57.5 294.265 58.7632C292.3 60.0263 291.317 61.5702 291.317 63.3947C291.317 66.3421 294.089 68.4474 299.633 69.7105L307.423 71.7105C317.668 74.2368 322.791 79.3947 322.791 87.1842ZM351.127 102.342C346.917 102.342 343.408 101.044 340.601 98.4474C337.864 95.8509 336.461 92.2368 336.391 87.6053V58.7632H327.338V49.9211H336.391V34.1316H346.075V49.9211H358.706V58.7632H346.075V84.4474C346.075 87.886 346.742 90.2368 348.075 91.5C349.408 92.693 350.917 93.2895 352.601 93.2895C353.373 93.2895 354.11 93.2193 354.812 93.0789C355.584 92.8684 356.285 92.6228 356.917 92.3421L359.97 100.974C357.443 101.886 354.496 102.342 351.127 102.342ZM380.959 32.1316C380.959 34.0263 380.292 35.6404 378.959 36.9737C377.626 38.307 376.012 38.9737 374.117 38.9737C372.222 38.9737 370.608 38.307 369.275 36.9737C367.941 35.6404 367.275 34.0263 367.275 32.1316C367.275 30.2368 367.941 28.6228 369.275 27.2895C370.608 25.9561 372.222 25.2895 374.117 25.2895C376.012 25.2895 377.626 25.9561 378.959 27.2895C380.292 28.6228 380.959 30.2368 380.959 32.1316ZM378.959 49.9211V101.5H369.275V49.9211H378.959ZM391.562 49.9211H400.825V57.0789H401.246C402.72 54.5526 404.965 52.4474 407.983 50.7632C411.07 49.0789 414.263 48.2368 417.562 48.2368C423.877 48.2368 428.72 50.0614 432.088 53.7105C435.527 57.2895 437.246 62.4123 437.246 69.0789V101.5H427.562V69.7105C427.351 61.2895 423.106 57.0789 414.825 57.0789C410.965 57.0789 407.737 58.6579 405.141 61.8158C402.544 64.9035 401.246 68.6228 401.246 72.9737V101.5H391.562V49.9211ZM448.613 49.9211H457.877V57.0789H458.298C459.771 54.5526 462.017 52.4474 465.035 50.7632C468.122 49.0789 471.315 48.2368 474.613 48.2368C480.929 48.2368 485.771 50.0614 489.14 53.7105C492.578 57.2895 494.298 62.4123 494.298 69.0789V101.5H484.613V69.7105C484.403 61.2895 480.157 57.0789 471.877 57.0789C468.017 57.0789 464.789 58.6579 462.192 61.8158C459.596 64.9035 458.298 68.6228 458.298 72.9737V101.5H448.613V49.9211Z" fill="#D8D8D8"/>
<path d="M45.8854 90.2416L61.9709 99.5179C63.1631 100.179 64.2121 101.07 65.0572 102.14C65.9023 103.209 66.5265 104.436 66.8937 105.749C67.2609 107.062 67.3638 108.434 67.1963 109.787C67.0289 111.14 66.5945 112.446 65.9183 113.63C65.243 114.808 64.3421 115.841 63.2671 116.67C62.1922 117.5 60.9642 118.109 59.6535 118.464C58.3428 118.818 56.9751 118.91 55.6287 118.736C54.2822 118.561 52.9833 118.123 51.8065 117.446L35.7209 108.136C34.5425 107.462 33.5093 106.56 32.6806 105.484C31.852 104.408 31.2444 103.179 30.8928 101.868C30.5412 100.556 30.4525 99.1878 30.6319 97.8417C30.8113 96.4956 31.2552 95.1983 31.938 94.0245C33.3004 91.6889 35.5269 89.9829 38.1365 89.2751C40.7462 88.5672 43.5296 88.9144 45.8854 90.2416Z" fill="url(#paint0_linear_40_157)"/>
<path d="M15.5893 35.6035L78.0893 71.7877C79.2689 72.4657 80.3028 73.3701 81.1318 74.4489C81.9609 75.5277 82.5686 76.7596 82.9201 78.074C83.2716 79.3883 83.36 80.7591 83.1801 82.1077C83.0003 83.4563 82.5558 84.7561 81.8722 85.9324C81.1942 87.1076 80.2913 88.1377 79.2151 88.9638C78.1389 89.79 76.9105 90.396 75.6 90.7473C74.2895 91.0986 72.9227 91.1883 71.5775 91.0112C70.2324 90.8341 68.9353 90.3938 67.7604 89.7153L5.26039 53.5311C4.08086 52.8531 3.04689 51.9487 2.21788 50.8699C1.38888 49.7911 0.781177 48.5591 0.429669 47.2448C0.0781599 45.9305 -0.010227 44.5596 0.169592 43.2111C0.34941 41.8625 0.793886 40.5627 1.47749 39.3864C2.15552 38.2112 3.05842 37.1811 4.13463 36.355C5.21084 35.5288 6.43927 34.9228 7.74975 34.5715C9.06022 34.2202 10.4271 34.1305 11.7722 34.3076C13.1173 34.4847 14.4144 34.925 15.5893 35.6035Z" fill="url(#paint1_linear_40_157)"/>
<path d="M21.5433 1.88646L72.267 31.1957C73.4449 31.871 74.4781 32.7719 75.3076 33.8468C76.137 34.9218 76.7463 36.1498 77.1008 37.4605C77.4552 38.7711 77.5477 40.1388 77.373 41.4853C77.1983 42.8318 76.7599 44.1306 76.0828 45.3075C75.4047 46.4871 74.5004 47.521 73.4216 48.35C72.3428 49.179 71.1108 49.7867 69.7965 50.1382C68.4822 50.4897 67.1113 50.5781 65.7627 50.3983C64.4142 50.2185 63.1144 49.774 61.9381 49.0904L11.2144 19.8141C8.83315 18.4439 7.09353 16.1842 6.37798 13.5317C5.66244 10.8793 6.02954 8.05122 7.39858 5.66936C8.77425 3.29373 11.0364 1.56108 13.6884 0.851829C16.3404 0.142576 19.1654 0.514686 21.5433 1.88646Z" fill="url(#paint2_linear_40_157)"/>
<path d="M21.5433 1.88644C20.3662 1.20824 19.067 0.768525 17.7199 0.592416C16.3728 0.416307 15.0042 0.50725 13.6923 0.860051C12.3804 1.21285 11.1508 1.8206 10.0737 2.64861C8.99665 3.47661 8.09322 4.50864 7.41501 5.68579C6.73681 6.86293 6.29709 8.16213 6.12098 9.50921C5.94487 10.8563 6.03582 12.2249 6.38862 13.5368C6.74142 14.8487 7.34917 16.0783 8.17718 17.1554C9.00518 18.2324 10.0372 19.1359 11.2144 19.8141L36.5762 34.4522L46.9051 16.5246L21.5433 1.88644Z" fill="url(#paint3_linear_40_157)"/>
<path d="M46.9051 16.5246C48.0847 17.2026 49.1186 18.107 49.9476 19.1858C50.7766 20.2646 51.3843 21.4965 51.7358 22.8109C52.0874 24.1252 52.1757 25.4961 51.9959 26.8446C51.8161 28.1932 51.3716 29.493 50.688 30.6693C50.01 31.8445 49.1071 32.8746 48.0309 33.7007C46.9547 34.5269 45.7262 35.1329 44.4158 35.4842C43.1053 35.8355 41.7385 35.9252 40.3933 35.7481C39.0482 35.571 37.7511 35.1307 36.5762 34.4522C35.3846 33.7775 34.3396 32.8718 33.5023 31.7882C32.665 30.7046 32.0523 29.4648 31.7 28.1415C31.3477 26.8182 31.263 25.4379 31.4507 24.0815C31.6384 22.725 32.0949 21.4196 32.7933 20.2417C34.1736 17.8795 36.4347 16.1614 39.0804 15.4645C41.7261 14.7676 44.5402 15.1489 46.9051 16.5246Z" fill="url(#paint4_linear_40_157)"/>
<path d="M46.9051 16.5246C48.0847 17.2026 49.1186 18.107 49.9476 19.1858C50.7766 20.2646 51.3843 21.4965 51.7358 22.8109C52.0874 24.1252 52.1757 25.4961 51.9959 26.8446C51.8161 28.1932 51.3716 29.493 50.688 30.6693C50.01 31.8445 49.1071 32.8746 48.0309 33.7007C46.9547 34.5269 45.7262 35.1329 44.4158 35.4842C43.1053 35.8355 41.7385 35.9252 40.3933 35.7481C39.0482 35.571 37.7511 35.1307 36.5762 34.4522C35.3846 33.7775 34.3396 32.8718 33.5023 31.7882C32.665 30.7046 32.0523 29.4648 31.7 28.1415C31.3477 26.8182 31.263 25.4379 31.4507 24.0815C31.6384 22.725 32.0949 21.4196 32.7933 20.2417C34.1736 17.8795 36.4347 16.1614 39.0804 15.4645C41.7261 14.7676 44.5402 15.1489 46.9051 16.5246Z" fill="url(#paint5_linear_40_157)"/>
<defs>
<linearGradient id="paint0_linear_40_157" x1="24.9436" y1="113.428" x2="61.2631" y2="99.1561" gradientUnits="userSpaceOnUse">
<stop stop-color="#8964E8"/>
<stop offset="0.91" stop-color="#B89CFF"/>
</linearGradient>
<linearGradient id="paint1_linear_40_157" x1="-3.18932" y1="75.967" x2="78.698" y2="51.9934" gradientUnits="userSpaceOnUse">
<stop stop-color="#FFE1C0"/>
<stop offset="0.504" stop-color="#FFA23E"/>
</linearGradient>
<linearGradient id="paint2_linear_40_157" x1="40.9512" y1="24.9457" x2="65.721" y2="42.018" gradientUnits="userSpaceOnUse">
<stop stop-color="#004F9E"/>
<stop offset="1" stop-color="#0071B6"/>
</linearGradient>
<linearGradient id="paint3_linear_40_157" x1="1.80383" y1="25.6754" x2="65.5222" y2="4.34348" gradientUnits="userSpaceOnUse">
<stop stop-color="#0496FF"/>
<stop offset="0.91" stop-color="#56CBFF"/>
</linearGradient>
<linearGradient id="paint4_linear_40_157" x1="50.1205" y1="38.9276" x2="37.9287" y2="18.8603" gradientUnits="userSpaceOnUse">
<stop stop-color="#0496FF"/>
<stop offset="0.91" stop-color="#56CBFF"/>
</linearGradient>
<linearGradient id="paint5_linear_40_157" x1="45.9686" y1="29.7545" x2="33.4006" y2="17.1787" gradientUnits="userSpaceOnUse">
<stop stop-color="#56CBFF"/>
<stop offset="1" stop-color="#C4FFFF"/>
</linearGradient>
</defs>
</svg>
