<svg width="387" height="128" viewBox="0 0 387 128" fill="none" xmlns="http://www.w3.org/2000/svg">
<path d="M69.333 104H26.666C22.2477 104 18.666 107.582 18.666 112C18.666 116.418 22.2477 120 26.666 120H69.333C73.7513 120 77.333 116.418 77.333 112C77.333 107.582 73.7513 104 69.333 104Z" fill="#8964E8"/>
<path d="M85.334 79.998H77.334C72.9157 79.998 69.334 83.5798 69.334 87.998C69.334 92.4163 72.9157 95.998 77.334 95.998H85.334C89.7523 95.998 93.334 92.4163 93.334 87.998C93.334 83.5798 89.7523 79.998 85.334 79.998Z" fill="#17B877"/>
<path d="M53.333 80H45.333C40.9147 80 37.333 83.5817 37.333 88C37.333 92.4183 40.9147 96 45.333 96H53.333C57.7513 96 61.333 92.4183 61.333 88C61.333 83.5817 57.7513 80 53.333 80Z" fill="#17B877"/>
<path d="M82.667 56H64C59.5817 56 56 59.5817 56 64C56 68.4183 59.5817 72 64 72H82.667C87.0853 72 90.667 68.4183 90.667 64C90.667 59.5817 87.0853 56 82.667 56Z" fill="#FFA23E"/>
<path d="M114.666 63.998C114.666 59.5798 111.084 55.998 106.666 55.998C102.248 55.998 98.666 59.5798 98.666 63.998C98.666 68.4163 102.248 71.998 106.666 71.998C111.084 71.998 114.666 68.4163 114.666 63.998Z" fill="#FFA23E"/>
<path d="M88 32H45.333C40.9147 32 37.333 35.5817 37.333 40C37.333 44.4183 40.9147 48 45.333 48H88C92.4183 48 96 44.4183 96 40C96 35.5817 92.4183 32 88 32Z" fill="#25A6E9"/>
<path d="M69.333 8H50.666C46.2477 8 42.666 11.5817 42.666 16C42.666 20.4183 46.2477 24 50.666 24H69.333C73.7513 24 77.333 20.4183 77.333 16C77.333 11.5817 73.7513 8 69.333 8Z" fill="#8964E8"/>
<path d="M34.666 16C34.666 11.5817 31.0843 8 26.666 8C22.2477 8 18.666 11.5817 18.666 16C18.666 20.4183 22.2477 24 26.666 24C31.0843 24 34.666 20.4183 34.666 16Z" fill="#8964E8"/>
<path d="M137.608 41.176H146.248L166.6 74.392H166.984L166.6 65.56V41.176H173.768V87H166.216L144.84 52.12H144.456L144.84 60.952V87H137.608V41.176ZM200.862 83.16H200.478C199.539 84.3973 198.323 85.528 196.83 86.552C195.336 87.5333 193.438 88.024 191.134 88.024C189.47 88.024 187.912 87.7467 186.462 87.192C185.011 86.68 183.752 85.9547 182.686 85.016C181.619 84.0347 180.766 82.904 180.126 81.624C179.528 80.3013 179.23 78.8507 179.23 77.272C179.23 75.608 179.55 74.1147 180.19 72.792C180.872 71.4693 181.79 70.36 182.942 69.464C184.136 68.568 185.544 67.8853 187.166 67.416C188.787 66.904 190.536 66.648 192.414 66.648C194.504 66.648 196.254 66.8613 197.662 67.288C199.07 67.672 200.136 68.0347 200.862 68.376V67.16C200.862 66.2213 200.648 65.3467 200.222 64.536C199.838 63.7253 199.283 63.0427 198.558 62.488C197.875 61.8907 197.086 61.4427 196.19 61.144C195.294 60.8027 194.355 60.632 193.374 60.632C191.795 60.632 190.366 60.952 189.086 61.592C187.848 62.1893 186.739 63.1707 185.758 64.536L180.126 60.824C181.619 58.776 183.475 57.24 185.694 56.216C187.912 55.1493 190.43 54.616 193.246 54.616C197.896 54.616 201.48 55.768 203.998 58.072C206.558 60.376 207.838 63.6613 207.838 67.928V87H200.862V83.16ZM200.862 73.944C199.923 73.3893 198.878 72.9413 197.726 72.6C196.574 72.2587 195.251 72.088 193.758 72.088C191.539 72.088 189.768 72.6 188.446 73.624C187.123 74.648 186.462 75.8853 186.462 77.336C186.462 78.104 186.632 78.7867 186.974 79.384C187.315 79.9387 187.742 80.4293 188.254 80.856C188.808 81.2827 189.427 81.6027 190.11 81.816C190.835 82.0293 191.56 82.136 192.286 82.136C193.438 82.136 194.526 81.9227 195.55 81.496C196.616 81.0267 197.534 80.4293 198.302 79.704C199.07 78.936 199.688 78.0613 200.158 77.08C200.627 76.0987 200.862 75.0533 200.862 73.944ZM243.265 79.512C241.942 81.944 240.065 83.9707 237.633 85.592C235.201 87.2133 232.214 88.024 228.673 88.024C226.326 88.024 224.15 87.6187 222.145 86.808C220.182 85.9547 218.476 84.7813 217.025 83.288C215.574 81.7947 214.444 80.0453 213.633 78.04C212.822 75.992 212.417 73.752 212.417 71.32C212.417 69.0587 212.801 66.9253 213.569 64.92C214.337 62.872 215.404 61.1013 216.769 59.608C218.177 58.072 219.862 56.856 221.825 55.96C223.788 55.064 225.964 54.616 228.353 54.616C230.785 54.616 232.94 55.0213 234.817 55.832C236.737 56.6427 238.358 57.7733 239.681 59.224C241.004 60.6747 242.006 62.424 242.689 64.472C243.414 66.52 243.777 68.76 243.777 71.192C243.777 71.4053 243.777 71.5973 243.777 71.768C243.734 71.9813 243.713 72.1733 243.713 72.344C243.67 72.5147 243.649 72.6853 243.649 72.856H219.521C219.649 74.3493 220.012 75.6507 220.609 76.76C221.206 77.8693 221.932 78.7867 222.785 79.512C223.681 80.2373 224.662 80.7707 225.729 81.112C226.796 81.4533 227.841 81.624 228.865 81.624C230.913 81.624 232.598 81.1333 233.921 80.152C235.244 79.1707 236.332 77.9547 237.185 76.504L243.265 79.512ZM236.673 67.416C236.588 66.776 236.374 66.072 236.033 65.304C235.734 64.4933 235.244 63.768 234.561 63.128C233.921 62.4453 233.068 61.8693 232.001 61.4C230.977 60.9307 229.718 60.696 228.225 60.696C226.177 60.696 224.406 61.3147 222.913 62.552C221.462 63.7467 220.481 65.368 219.969 67.416H236.673ZM261.363 88.024C259.443 88.024 257.715 87.768 256.179 87.256C254.643 86.744 253.299 86.0827 252.147 85.272C250.995 84.4187 250.014 83.4587 249.203 82.392C248.435 81.3253 247.838 80.216 247.411 79.064L253.811 76.376C254.536 78.2107 255.582 79.576 256.947 80.472C258.312 81.3253 259.784 81.752 261.363 81.752C263.155 81.752 264.563 81.3893 265.587 80.664C266.611 79.9387 267.123 79.128 267.123 78.232C267.123 77.336 266.739 76.568 265.971 75.928C265.203 75.2453 263.752 74.648 261.619 74.136L257.139 73.048C256.158 72.8347 255.155 72.5147 254.131 72.088C253.15 71.6187 252.232 71.0427 251.379 70.36C250.526 69.6347 249.822 68.7813 249.267 67.8C248.755 66.776 248.499 65.5813 248.499 64.216C248.499 62.68 248.819 61.3147 249.459 60.12C250.142 58.9253 251.059 57.9227 252.211 57.112C253.363 56.3013 254.686 55.6827 256.179 55.256C257.715 54.8293 259.336 54.616 261.043 54.616C262.451 54.616 263.795 54.7653 265.075 55.064C266.398 55.3627 267.614 55.8107 268.723 56.408C269.832 57.0053 270.814 57.7733 271.667 58.712C272.563 59.608 273.267 60.6747 273.779 61.912L267.507 64.536C266.91 63.1707 265.971 62.1893 264.691 61.592C263.411 60.952 262.11 60.632 260.787 60.632C260.19 60.632 259.571 60.7173 258.931 60.888C258.334 61.016 257.779 61.2293 257.267 61.528C256.798 61.784 256.392 62.1253 256.051 62.552C255.752 62.9787 255.603 63.448 255.603 63.96C255.603 64.8133 255.966 65.496 256.691 66.008C257.459 66.4773 258.611 66.904 260.147 67.288L264.947 68.504C268.19 69.3147 270.558 70.552 272.051 72.216C273.587 73.8373 274.355 75.7573 274.355 77.976C274.355 79.3413 274.035 80.6213 273.395 81.816C272.798 83.0107 271.923 84.0773 270.771 85.016C269.619 85.9547 268.232 86.68 266.611 87.192C265.032 87.7467 263.283 88.024 261.363 88.024ZM282.603 61.912H277.099V55.64H282.603V46.04H289.707V55.64H297.451V61.912H289.707V75.864C289.707 76.632 289.792 77.336 289.963 77.976C290.133 78.616 290.389 79.1493 290.731 79.576C291.456 80.3867 292.373 80.792 293.483 80.792C294.165 80.792 294.699 80.7493 295.083 80.664C295.467 80.536 295.872 80.3653 296.299 80.152L298.475 86.424C297.579 86.7653 296.64 87.0213 295.659 87.192C294.677 87.4053 293.568 87.512 292.331 87.512C290.837 87.512 289.515 87.2773 288.363 86.808C287.211 86.3387 286.208 85.6987 285.355 84.888C283.52 83.0533 282.603 80.5573 282.603 77.4V61.912ZM307.743 50.072C306.377 50.072 305.225 49.6027 304.286 48.664C303.391 47.7253 302.943 46.5947 302.943 45.272C302.943 43.9493 303.391 42.8187 304.286 41.88C305.225 40.9413 306.377 40.472 307.743 40.472C309.065 40.472 310.175 40.9413 311.071 41.88C312.009 42.8187 312.479 43.9493 312.479 45.272C312.479 46.5947 312.009 47.7253 311.071 48.664C310.175 49.6027 309.065 50.072 307.743 50.072ZM304.159 87V55.64H311.263V87H304.159ZM325.679 59.864H326.063C327.002 58.3707 328.324 57.1333 330.031 56.152C331.78 55.128 333.743 54.616 335.919 54.616C339.887 54.616 342.852 55.8107 344.815 58.2C346.778 60.5467 347.759 63.6827 347.759 67.608V87H340.655V68.568C340.655 65.8373 340.015 63.9387 338.735 62.872C337.498 61.7627 335.855 61.208 333.807 61.208C332.57 61.208 331.482 61.464 330.543 61.976C329.604 62.488 328.794 63.192 328.111 64.088C327.428 64.9413 326.916 65.944 326.575 67.096C326.234 68.2053 326.063 69.3787 326.063 70.616V87H318.959V55.64H325.679V59.864ZM361.367 59.864H361.751C362.689 58.3707 364.012 57.1333 365.719 56.152C367.468 55.128 369.431 54.616 371.607 54.616C375.575 54.616 378.54 55.8107 380.503 58.2C382.465 60.5467 383.447 63.6827 383.447 67.608V87H376.343V68.568C376.343 65.8373 375.703 63.9387 374.423 62.872C373.185 61.7627 371.543 61.208 369.495 61.208C368.257 61.208 367.169 61.464 366.231 61.976C365.292 62.488 364.481 63.192 363.799 64.088C363.116 64.9413 362.604 65.944 362.263 67.096C361.921 68.2053 361.751 69.3787 361.751 70.616V87H354.647V55.64H361.367V59.864Z" fill="#84888D"/>
</svg>
