<svg width="44" height="44" viewBox="0 0 44 44" fill="none" xmlns="http://www.w3.org/2000/svg">
<g filter="url(#filter0_f_271_1461)">
<path d="M19.4366 11.2559C20.2311 11.2559 20.875 11.8997 20.875 12.6943V18.3795H17.9982V12.6943C17.9982 11.8997 18.642 11.2559 19.4366 11.2559Z" fill="url(#paint0_linear_271_1461)"/>
<path d="M25.1904 11.2559C25.9849 11.2559 26.6288 11.8997 26.6288 12.6943V18.3795H23.752V12.6943C23.752 11.8997 24.3958 11.2559 25.1904 11.2559Z" fill="url(#paint1_linear_271_1461)"/>
<path d="M11.5596 24.7501C11.5596 23.9555 12.2034 23.3116 12.998 23.3116H18.6832V26.1885H12.998C12.2034 26.1885 11.5596 25.5446 11.5596 24.7501Z" fill="url(#paint2_linear_271_1461)"/>
<path d="M11.5596 18.9961C11.5596 18.2016 12.2034 17.5577 12.998 17.5577H18.6832V20.4346H12.998C12.2034 20.4346 11.5596 19.7907 11.5596 18.9961Z" fill="url(#paint3_linear_271_1461)"/>
<path d="M25.0533 32.627C24.2587 32.627 23.6149 31.9831 23.6149 31.1885V25.5033H26.4917V31.1885C26.4917 31.9831 25.8478 32.627 25.0533 32.627Z" fill="url(#paint4_linear_271_1461)"/>
<path d="M19.2996 32.627C18.5051 32.627 17.8612 31.9831 17.8612 31.1885V25.5033H20.738V31.1885C20.738 31.9831 20.0942 32.627 19.2996 32.627Z" fill="url(#paint5_linear_271_1461)"/>
<path d="M32.9304 19.1328C32.9304 19.9273 32.2866 20.5712 31.492 20.5712H25.8068V17.6943H31.492C32.2866 17.6943 32.9304 18.3382 32.9304 19.1328Z" fill="url(#paint6_linear_271_1461)"/>
<path d="M32.9304 24.8867C32.9304 25.6812 32.2866 26.3251 31.492 26.3251H25.8068V23.4482H31.492C32.2866 23.4482 32.9304 24.0921 32.9304 24.8867Z" fill="url(#paint7_linear_271_1461)"/>
</g>
<g filter="url(#filter1_f_271_1461)">
<path d="M25.8067 18.3799H18.6831V25.5035H25.8067V18.3799Z" fill="white"/>
</g>
<path d="M17.9296 11.2559C18.7242 11.2559 19.3681 11.8997 19.3681 12.6943V18.3795H16.4912V12.6943C16.4912 11.8997 17.1351 11.2559 17.9296 11.2559Z" fill="url(#paint8_linear_271_1461)"/>
<path d="M23.6834 11.2559C24.478 11.2559 25.1218 11.8997 25.1218 12.6943V18.3795H22.245V12.6943C22.245 11.8997 22.8889 11.2559 23.6834 11.2559Z" fill="url(#paint9_linear_271_1461)"/>
<path d="M10.0526 24.7501C10.0526 23.9555 10.6965 23.3116 11.491 23.3116H17.1762V26.1885H11.491C10.6965 26.1885 10.0526 25.5446 10.0526 24.7501Z" fill="url(#paint10_linear_271_1461)"/>
<path d="M10.0526 18.9961C10.0526 18.2016 10.6965 17.5577 11.491 17.5577H17.1762V20.4346H11.491C10.6965 20.4346 10.0526 19.7907 10.0526 18.9961Z" fill="url(#paint11_linear_271_1461)"/>
<path d="M23.5463 32.627C22.7518 32.627 22.1079 31.9831 22.1079 31.1885V25.5033H24.9847V31.1885C24.9847 31.9831 24.3409 32.627 23.5463 32.627Z" fill="url(#paint12_linear_271_1461)"/>
<path d="M17.7927 32.627C16.9981 32.627 16.3542 31.9831 16.3542 31.1885V25.5033H19.2311V31.1885C19.2311 31.9831 18.5872 32.627 17.7927 32.627Z" fill="url(#paint13_linear_271_1461)"/>
<path d="M31.4235 19.1328C31.4235 19.9273 30.7796 20.5712 29.985 20.5712H24.2999V17.6943H29.985C30.7796 17.6943 31.4235 18.3382 31.4235 19.1328Z" fill="url(#paint14_linear_271_1461)"/>
<path d="M31.4235 24.8867C31.4235 25.6812 30.7796 26.3251 29.985 26.3251H24.2999V23.4482H29.985C30.7796 23.4482 31.4235 24.0921 31.4235 24.8867Z" fill="url(#paint15_linear_271_1461)"/>
<g filter="url(#filter2_b_271_1461)">
<path d="M25.7382 14.8174H15.7378C14.5651 14.8174 13.6144 15.7681 13.6144 16.9408V26.9412C13.6144 28.1139 14.5651 29.0646 15.7378 29.0646H25.7382C26.9109 29.0646 27.8616 28.1139 27.8616 26.9412V16.9408C27.8616 15.7681 26.9109 14.8174 25.7382 14.8174Z" fill="url(#paint16_linear_271_1461)"/>
<path d="M15.7378 14.9377H25.7382C26.8445 14.9377 27.7413 15.8345 27.7413 16.9408V26.9412C27.7413 28.0475 26.8445 28.9443 25.7382 28.9443H15.7378C14.6315 28.9443 13.7347 28.0475 13.7347 26.9412V16.9408C13.7347 15.8345 14.6315 14.9377 15.7378 14.9377Z" stroke="url(#paint17_linear_271_1461)" stroke-width="0.240602"/>
</g>
<path d="M23.6984 18.3799H17.7778C17.4456 18.3799 17.1763 18.6492 17.1763 18.9814V24.902C17.1763 25.2342 17.4456 25.5035 17.7778 25.5035H23.6984C24.0306 25.5035 24.2999 25.2342 24.2999 24.902V18.9814C24.2999 18.6492 24.0306 18.3799 23.6984 18.3799Z" fill="white"/>
<defs>
<filter id="filter0_f_271_1461" x="0.973104" y="0.669393" width="42.5438" height="42.544" filterUnits="userSpaceOnUse" color-interpolation-filters="sRGB">
<feFlood flood-opacity="0" result="BackgroundImageFix"/>
<feBlend mode="normal" in="SourceGraphic" in2="BackgroundImageFix" result="shape"/>
<feGaussianBlur stdDeviation="5.29323" result="effect1_foregroundBlur_271_1461"/>
</filter>
<filter id="filter1_f_271_1461" x="8.09664" y="7.79342" width="28.2966" height="28.297" filterUnits="userSpaceOnUse" color-interpolation-filters="sRGB">
<feFlood flood-opacity="0" result="BackgroundImageFix"/>
<feBlend mode="normal" in="SourceGraphic" in2="BackgroundImageFix" result="shape"/>
<feGaussianBlur stdDeviation="5.29323" result="effect1_foregroundBlur_271_1461"/>
</filter>
<filter id="filter2_b_271_1461" x="11.449" y="12.652" width="18.578" height="18.5779" filterUnits="userSpaceOnUse" color-interpolation-filters="sRGB">
<feFlood flood-opacity="0" result="BackgroundImageFix"/>
<feGaussianBlur in="BackgroundImageFix" stdDeviation="1.08271"/>
<feComposite in2="SourceAlpha" operator="in" result="effect1_backgroundBlur_271_1461"/>
<feBlend mode="normal" in="SourceGraphic" in2="effect1_backgroundBlur_271_1461" result="shape"/>
</filter>
<linearGradient id="paint0_linear_271_1461" x1="13.9172" y1="9.89552" x2="34.0879" y2="29.3978" gradientUnits="userSpaceOnUse">
<stop stop-color="#B14DFF"/>
<stop offset="0.99" stop-color="#652AC6"/>
</linearGradient>
<linearGradient id="paint1_linear_271_1461" x1="16.9503" y1="7.2639" x2="37.1211" y2="26.7661" gradientUnits="userSpaceOnUse">
<stop stop-color="#B14DFF"/>
<stop offset="0.99" stop-color="#652AC6"/>
</linearGradient>
<linearGradient id="paint2_linear_271_1461" x1="7.50459" y1="16.9716" x2="27.7014" y2="36.4999" gradientUnits="userSpaceOnUse">
<stop stop-color="#B14DFF"/>
<stop offset="0.99" stop-color="#652AC6"/>
</linearGradient>
<linearGradient id="paint3_linear_271_1461" x1="10.139" y1="13.7658" x2="30.3371" y2="33.2927" gradientUnits="userSpaceOnUse">
<stop stop-color="#B14DFF"/>
<stop offset="0.99" stop-color="#652AC6"/>
</linearGradient>
<linearGradient id="paint4_linear_271_1461" x1="10.3471" y1="14.433" x2="30.5179" y2="33.9352" gradientUnits="userSpaceOnUse">
<stop stop-color="#B14DFF"/>
<stop offset="0.99" stop-color="#652AC6"/>
</linearGradient>
<linearGradient id="paint5_linear_271_1461" x1="7.31551" y1="17.0646" x2="27.4863" y2="36.5669" gradientUnits="userSpaceOnUse">
<stop stop-color="#B14DFF"/>
<stop offset="0.99" stop-color="#652AC6"/>
</linearGradient>
<linearGradient id="paint6_linear_271_1461" x1="16.7338" y1="7.33085" x2="36.932" y2="26.8591" gradientUnits="userSpaceOnUse">
<stop stop-color="#B14DFF"/>
<stop offset="0.99" stop-color="#652AC6"/>
</linearGradient>
<linearGradient id="paint7_linear_271_1461" x1="14.0994" y1="10.5381" x2="34.2962" y2="30.065" gradientUnits="userSpaceOnUse">
<stop stop-color="#B14DFF"/>
<stop offset="0.99" stop-color="#652AC6"/>
</linearGradient>
<linearGradient id="paint8_linear_271_1461" x1="12.4102" y1="9.89552" x2="32.581" y2="29.3978" gradientUnits="userSpaceOnUse">
<stop stop-color="#B14DFF"/>
<stop offset="0.99" stop-color="#652AC6"/>
</linearGradient>
<linearGradient id="paint9_linear_271_1461" x1="15.4433" y1="7.2639" x2="35.6141" y2="26.7661" gradientUnits="userSpaceOnUse">
<stop stop-color="#B14DFF"/>
<stop offset="0.99" stop-color="#652AC6"/>
</linearGradient>
<linearGradient id="paint10_linear_271_1461" x1="5.99763" y1="16.9716" x2="26.1944" y2="36.4999" gradientUnits="userSpaceOnUse">
<stop stop-color="#B14DFF"/>
<stop offset="0.99" stop-color="#652AC6"/>
</linearGradient>
<linearGradient id="paint11_linear_271_1461" x1="8.632" y1="13.7658" x2="28.8302" y2="33.2927" gradientUnits="userSpaceOnUse">
<stop stop-color="#B14DFF"/>
<stop offset="0.99" stop-color="#652AC6"/>
</linearGradient>
<linearGradient id="paint12_linear_271_1461" x1="8.84018" y1="14.433" x2="29.011" y2="33.9352" gradientUnits="userSpaceOnUse">
<stop stop-color="#B14DFF"/>
<stop offset="0.99" stop-color="#652AC6"/>
</linearGradient>
<linearGradient id="paint13_linear_271_1461" x1="5.80855" y1="17.0646" x2="25.9793" y2="36.5669" gradientUnits="userSpaceOnUse">
<stop stop-color="#B14DFF"/>
<stop offset="0.99" stop-color="#652AC6"/>
</linearGradient>
<linearGradient id="paint14_linear_271_1461" x1="15.2268" y1="7.33085" x2="35.425" y2="26.8591" gradientUnits="userSpaceOnUse">
<stop stop-color="#B14DFF"/>
<stop offset="0.99" stop-color="#652AC6"/>
</linearGradient>
<linearGradient id="paint15_linear_271_1461" x1="12.5925" y1="10.5381" x2="32.7893" y2="30.065" gradientUnits="userSpaceOnUse">
<stop stop-color="#B14DFF"/>
<stop offset="0.99" stop-color="#652AC6"/>
</linearGradient>
<linearGradient id="paint16_linear_271_1461" x1="14.4187" y1="28.2603" x2="27.0573" y2="15.6217" gradientUnits="userSpaceOnUse">
<stop stop-color="white" stop-opacity="0.2"/>
<stop offset="1" stop-color="white" stop-opacity="0.49"/>
</linearGradient>
<linearGradient id="paint17_linear_271_1461" x1="14.6201" y1="15.9379" x2="26.5294" y2="28.6717" gradientUnits="userSpaceOnUse">
<stop stop-color="white"/>
<stop offset="1" stop-color="white" stop-opacity="0"/>
</linearGradient>
</defs>
</svg>
