<svg width="32" height="37" viewBox="0 0 32 37" fill="none" xmlns="http://www.w3.org/2000/svg">
<g filter="url(#filter0_f_271_1590)">
<path d="M18.4112 7.43359H11.5829C10.0517 7.43359 8.8114 8.66688 8.8114 10.1895V25.3428C8.8114 26.8654 10.0517 28.0987 11.5829 28.0987H21.9725C23.5037 28.0987 24.744 26.8654 24.744 25.3428V13.7307C24.744 12.9999 24.4514 12.299 23.9327 11.7815L20.3714 8.24036C19.851 7.72291 19.1461 7.43359 18.4112 7.43359Z" fill="url(#paint0_linear_271_1590)"/>
</g>
<path d="M17.7802 7.43359H10.952C9.42072 7.43359 8.18042 8.66688 8.18042 10.1895V25.3428C8.18042 26.8654 9.42072 28.0987 10.952 28.0987H21.3415C22.8728 28.0987 24.1131 26.8654 24.1131 25.3428V13.7307C24.1131 12.9999 23.8204 12.299 23.3017 11.7815L19.7404 8.24036C19.22 7.72291 18.5151 7.43359 17.7802 7.43359Z" fill="url(#paint1_linear_271_1590)"/>
<g filter="url(#filter1_b_271_1590)">
<path d="M17.5659 19.2581V17.929C17.5659 17.0119 16.8179 16.2676 15.8963 16.2676H6.37957C5.45794 16.2676 4.70996 17.0119 4.70996 17.929V29.7282C4.70996 30.9194 5.68 31.8847 6.87711 31.8847H25.4164C26.6135 31.8847 27.5836 30.9194 27.5836 29.7282V21.4146C27.5836 20.2234 26.6135 19.2581 25.4164 19.2581H17.5659Z" fill="url(#paint2_linear_271_1590)"/>
<path d="M17.4274 19.2581V19.3966H17.5659H25.4164C26.5377 19.3966 27.445 20.3005 27.445 21.4146V29.7282C27.445 30.8423 26.5377 31.7462 25.4164 31.7462H6.87711C5.75586 31.7462 4.84849 30.8423 4.84849 29.7282V17.929C4.84849 17.089 5.53381 16.4061 6.37957 16.4061H15.8963C16.7421 16.4061 17.4274 17.089 17.4274 17.929V19.2581Z" stroke="url(#paint3_linear_271_1590)" stroke-width="0.277056"/>
</g>
<path d="M12.4682 21.3332V23.0659C12.4682 23.2668 12.285 23.4355 12.0564 23.4355H9.10299C8.87279 23.4355 8.68958 23.2668 8.68958 23.0659V21.3332C8.68958 21.1322 8.87279 20.9678 9.10299 20.9678H12.0564C12.285 20.9678 12.4682 21.1322 12.4682 21.3332Z" fill="url(#paint4_linear_271_1590)"/>
<path d="M16.9384 26.3527V28.0854C16.9384 28.2864 16.7552 28.455 16.5266 28.455H13.5732C13.343 28.455 13.1598 28.2864 13.1598 28.0854V26.3527C13.1598 26.1517 13.343 25.9873 13.5732 25.9873H16.5266C16.7552 25.9873 16.9384 26.1517 16.9384 26.3527Z" fill="url(#paint5_linear_271_1590)"/>
<path d="M16.7518 21.4521V22.2938C16.7518 22.3752 16.6936 22.4392 16.6218 22.4392H15.0975C15.0257 22.4392 14.9675 22.3752 14.9675 22.2938V21.4521C14.9675 21.3687 15.0257 21.3027 15.0975 21.3027H16.6218C16.6936 21.3027 16.7518 21.3687 16.7518 21.4521Z" fill="#FF614B"/>
<path d="M10.8295 21.4629L10.4064 22.9394Z" fill="url(#paint6_linear_271_1590)"/>
<path d="M12.4694 24.0611C12.8153 24.0611 13.0968 23.7796 13.0968 23.4338V21.8878H14.9676V21.6861H13.0968V20.963C13.0968 20.62 12.8153 20.3408 12.4694 20.3408H8.68862C8.3426 20.3408 8.06116 20.62 8.06116 20.963V23.4338C8.06116 23.7796 8.3426 24.0611 8.68862 24.0611H9.98255C10.0156 24.1234 10.0416 24.1847 10.0247 24.2245C9.99146 24.3033 9.81467 24.3125 9.70207 24.4149C9.61637 24.4933 9.57546 24.6361 9.6551 24.7393C9.72915 24.8353 9.85529 24.8315 9.91589 24.8304L10.0396 24.827C9.87206 25.0048 9.70106 25.1895 9.57318 25.409C9.22978 25.9998 9.39489 26.5402 9.76675 26.7624C9.85924 27.564 10.8941 27.9827 11.6187 27.3997L11.5555 27.6323C11.5409 27.6857 11.5724 27.7408 11.6258 27.7554C11.6818 27.7699 11.7348 27.7364 11.7488 27.685L11.9232 27.044C11.9399 26.983 11.8955 26.9159 11.8239 26.9175C11.6782 26.9221 11.5327 26.8817 11.4098 26.8064C11.3628 26.7776 11.301 26.7923 11.2721 26.8393C11.2431 26.8865 11.2578 26.9482 11.3051 26.9772C11.4061 27.0391 11.5201 27.0805 11.6376 27.1016C11.6372 27.102 11.6368 27.1022 11.6364 27.1026C11.4259 27.363 11.0749 27.5058 10.7423 27.466C10.3934 27.4245 10.0717 27.1796 9.98569 26.8442C10.3068 26.8971 10.6453 26.6828 10.7284 26.3717C10.7719 26.2094 10.7432 25.998 10.5809 25.8916C10.3024 25.7087 9.8457 25.9876 9.77025 26.512C9.50319 26.2464 9.55448 25.8396 9.74648 25.5098C9.86854 25.3001 10.0413 25.117 10.2084 24.9399C10.2395 24.907 10.2424 24.8593 10.2209 24.8219L10.4237 24.8162H10.9292C11.4368 24.82 11.5949 24.8761 11.7004 24.7395C11.7803 24.6361 11.7393 24.4933 11.6534 24.4149C11.5387 24.3104 11.3648 24.3048 11.331 24.2245C11.314 24.1845 11.34 24.1232 11.3732 24.0611L12.4694 24.0611ZM10.471 26.0594C10.5456 26.1082 10.5595 26.2274 10.5348 26.3198C10.4743 26.5458 10.2006 26.7087 9.9622 26.6327C9.97323 26.1936 10.3179 25.9583 10.471 26.0594ZM8.26154 23.4338V20.963C8.26154 20.7304 8.45311 20.5412 8.68862 20.5412H12.4694C12.7048 20.5412 12.8964 20.7304 12.8964 20.963V21.7867C12.8964 21.7867 12.8963 21.7868 12.8963 21.7869C12.8963 21.787 12.8964 21.7871 12.8964 21.7872V23.4338C12.8964 23.6692 12.7048 23.8607 12.4694 23.8607H8.68862C8.45311 23.8607 8.26154 23.6692 8.26154 23.4338ZM11.1463 24.3026C11.2217 24.481 11.439 24.4907 11.5184 24.563C11.5402 24.5829 11.5452 24.6124 11.5417 24.617C11.5199 24.6453 11.305 24.6193 10.9319 24.6158H10.4209C10.0235 24.6197 9.83529 24.6452 9.81381 24.617C9.8104 24.6124 9.81542 24.5829 9.8372 24.563C9.91848 24.4889 10.1328 24.4836 10.2094 24.3026C10.2453 24.2175 10.2301 24.132 10.2036 24.0611H11.1519C11.1254 24.132 11.1102 24.2174 11.1463 24.3026Z" fill="white"/>
<path d="M16.9395 25.3603H16.3465V22.7856C16.3465 22.6615 16.3251 22.5452 16.2863 22.4385H16.0808C16.0808 22.4501 16.0827 22.4637 16.0885 22.4753C16.1254 22.5704 16.1448 22.6751 16.1448 22.7856V25.3603H13.1587C12.8128 25.3603 12.5314 25.6394 12.5314 25.9824V28.4532C12.5314 28.7993 12.8128 29.0807 13.1587 29.0807H14.4526C14.4857 29.1428 14.5117 29.2041 14.4948 29.244C14.4623 29.3208 14.2803 29.3357 14.172 29.4345C14.0865 29.5131 14.0456 29.6559 14.1252 29.7587C14.2184 29.8792 15.3799 29.8366 15.3993 29.8356L15.9096 29.8498C15.9699 29.8515 16.0961 29.8553 16.1704 29.7589C16.2503 29.6559 16.2094 29.5131 16.1235 29.4343C16.0082 29.3289 15.8355 29.3254 15.8011 29.244C15.7842 29.2041 15.8101 29.1428 15.8433 29.0807H16.9395C17.2854 29.0807 17.5669 28.7993 17.5669 28.4532V25.9824C17.5669 25.6394 17.2854 25.3603 16.9395 25.3603ZM15.6164 29.322C15.6926 29.5022 15.9099 29.5109 15.9883 29.5822C16.0093 29.6015 16.0153 29.6298 16.0119 29.6364C15.99 29.6648 15.7707 29.6387 15.402 29.6353C15.3825 29.6358 14.298 29.6556 14.2838 29.6362C14.2806 29.63 14.2866 29.6015 14.3073 29.5824C14.3883 29.5084 14.6019 29.5054 14.6795 29.322C14.7154 29.2369 14.7003 29.1515 14.6738 29.0807H15.6221C15.5956 29.1516 15.5804 29.237 15.6164 29.322ZM17.3665 28.4532C17.3665 28.6887 17.1749 28.8803 16.9395 28.8803H13.1587C12.9233 28.8803 12.7318 28.6887 12.7318 28.4532V25.9824C12.7318 25.7498 12.9233 25.5606 13.1587 25.5606H16.9395C17.1749 25.5606 17.3665 25.7498 17.3665 25.9824V28.4532Z" fill="white"/>
<path d="M11.1514 21.781C11.1057 21.75 11.0434 21.7617 11.0121 21.8074C10.9809 21.853 10.9927 21.9153 11.0384 21.9466L11.4111 22.2011L11.0384 22.4556C10.9567 22.5115 10.9973 22.6386 11.095 22.6386C11.1499 22.6386 11.1404 22.6214 11.566 22.338C11.6622 22.272 11.6624 22.13 11.5659 22.064L11.1514 21.781Z" fill="white"/>
<path d="M9.7889 22.1699L10.1616 21.9153C10.2073 21.8841 10.2191 21.8217 10.1879 21.7761C10.1567 21.7305 10.0945 21.7187 10.0486 21.7498L9.63398 22.0327C9.53738 22.099 9.53798 22.241 9.63407 22.3068L10.0486 22.5899C10.0946 22.6211 10.1569 22.6093 10.1879 22.5636C10.2191 22.518 10.2074 22.4556 10.1616 22.4244L9.7889 22.1699Z" fill="white"/>
<path d="M10.8573 21.3664C10.8039 21.3507 10.7486 21.3819 10.7334 21.4351L10.3102 22.9118C10.2922 22.9747 10.3386 23.0397 10.4066 23.0397C10.4501 23.0397 10.4902 23.0111 10.5028 22.9671L10.926 21.4904C10.9412 21.4372 10.9105 21.3817 10.8573 21.3664Z" fill="white"/>
<path d="M15.8448 26.8211C15.799 26.7901 15.7368 26.8016 15.7055 26.8474C15.6743 26.8931 15.686 26.9554 15.7317 26.9866L16.146 27.2694L15.7317 27.5524C15.65 27.6082 15.6907 27.7353 15.7884 27.7353C15.843 27.7353 15.8328 27.7186 16.2943 27.4109C16.3936 27.3429 16.3937 27.1958 16.2941 27.1279L15.8448 26.8211Z" fill="white"/>
<path d="M14.5904 26.8474C14.5592 26.8016 14.4969 26.7901 14.4511 26.8211L14.002 27.1279C13.9027 27.1955 13.902 27.3426 14.0019 27.4111C14.4651 27.72 14.4523 27.7353 14.5076 27.7353C14.6054 27.7353 14.6458 27.6081 14.5642 27.5524L14.15 27.2696L14.5642 26.9866C14.61 26.9554 14.6217 26.8931 14.5904 26.8474Z" fill="white"/>
<path d="M14.7411 26.7915C14.7201 26.8587 14.7329 26.9348 14.7754 26.9951C14.8586 27.113 15.0348 27.1251 15.04 26.9873C15.0421 26.932 14.9945 26.8816 14.9392 26.8795C14.8822 26.7987 15.1658 26.6926 15.3105 26.8369C15.3708 26.897 15.3822 26.9949 15.3361 27.0555C15.2436 27.1764 14.9136 27.2048 14.8945 27.5176C14.891 27.5752 14.9365 27.624 14.9946 27.624C15.0472 27.624 15.0913 27.5831 15.0945 27.5301C15.1055 27.3525 15.3621 27.3512 15.4955 27.1771C15.6021 27.0371 15.583 26.8252 15.4519 26.6949C15.2282 26.4717 14.8153 26.5554 14.7411 26.7915Z" fill="white"/>
<path d="M14.8784 27.8177C14.8744 27.8752 14.9197 27.9251 14.9785 27.9251C15.0306 27.9251 15.0746 27.8847 15.0784 27.8321C15.0784 27.8315 15.0795 27.8148 15.0796 27.8143C15.0859 27.6964 14.8888 27.6715 14.8784 27.8177Z" fill="white"/>
<defs>
<filter id="filter0_f_271_1590" x="1.88499" y="0.507187" width="29.7854" height="34.5179" filterUnits="userSpaceOnUse" color-interpolation-filters="sRGB">
<feFlood flood-opacity="0" result="BackgroundImageFix"/>
<feBlend mode="normal" in="SourceGraphic" in2="BackgroundImageFix" result="shape"/>
<feGaussianBlur stdDeviation="3.4632" result="effect1_foregroundBlur_271_1590"/>
</filter>
<filter id="filter1_b_271_1590" x="2.21645" y="13.7741" width="27.8605" height="20.6042" filterUnits="userSpaceOnUse" color-interpolation-filters="sRGB">
<feFlood flood-opacity="0" result="BackgroundImageFix"/>
<feGaussianBlur in="BackgroundImageFix" stdDeviation="1.24675"/>
<feComposite in2="SourceAlpha" operator="in" result="effect1_backgroundBlur_271_1590"/>
<feBlend mode="normal" in="SourceGraphic" in2="effect1_backgroundBlur_271_1590" result="shape"/>
</filter>
<linearGradient id="paint0_linear_271_1590" x1="9.34509" y1="8.96281" x2="22.398" y2="27.7432" gradientUnits="userSpaceOnUse">
<stop stop-color="#FFDC7C"/>
<stop offset="1" stop-color="#F78D1E"/>
</linearGradient>
<linearGradient id="paint1_linear_271_1590" x1="8.71411" y1="8.96281" x2="21.7671" y2="27.7432" gradientUnits="userSpaceOnUse">
<stop stop-color="#FECB3E"/>
<stop offset="1" stop-color="#F71E1E"/>
</linearGradient>
<linearGradient id="paint2_linear_271_1590" x1="6.00131" y1="31.003" x2="18.9041" y2="12.105" gradientUnits="userSpaceOnUse">
<stop stop-color="white" stop-opacity="0.2"/>
<stop offset="1" stop-color="white" stop-opacity="0.49"/>
</linearGradient>
<linearGradient id="paint3_linear_271_1590" x1="6.32458" y1="17.4958" x2="18.1941" y2="36.084" gradientUnits="userSpaceOnUse">
<stop stop-color="white"/>
<stop offset="1" stop-color="white" stop-opacity="0"/>
</linearGradient>
<linearGradient id="paint4_linear_271_1590" x1="8.54113" y1="22.779" x2="12.2325" y2="21.6476" gradientUnits="userSpaceOnUse">
<stop stop-color="#FFE1C0"/>
<stop offset="0.504" stop-color="#FFA23E"/>
</linearGradient>
<linearGradient id="paint5_linear_271_1590" x1="12.7687" y1="27.817" x2="18.3145" y2="25.4558" gradientUnits="userSpaceOnUse">
<stop stop-color="#0496FF"/>
<stop offset="0.91" stop-color="#56CBFF"/>
</linearGradient>
<linearGradient id="paint6_linear_271_1590" x1="10.3897" y1="22.5466" x2="10.8405" y2="22.5207" gradientUnits="userSpaceOnUse">
<stop stop-color="#FFE1C0"/>
<stop offset="0.504" stop-color="#FFA23E"/>
</linearGradient>
</defs>
</svg>
