<svg width="38" height="38" viewBox="0 0 38 38" fill="none" xmlns="http://www.w3.org/2000/svg">
<g filter="url(#filter0_f_271_1493)">
<path d="M23.6626 11.3203H14.7835C13.2467 11.3203 12.0009 12.5661 12.0009 14.1029V22.9821C12.0009 24.5189 13.2467 25.7647 14.7835 25.7647H23.6626C25.1994 25.7647 26.4453 24.5189 26.4453 22.9821V14.1029C26.4453 12.5661 25.1994 11.3203 23.6626 11.3203Z" fill="url(#paint0_linear_271_1493)"/>
</g>
<path d="M22.9339 11.3193H14.0547C12.5179 11.3193 11.2721 12.5652 11.2721 14.102V22.9811C11.2721 24.5179 12.5179 25.7637 14.0547 25.7637H22.9339C24.4707 25.7637 25.7165 24.5179 25.7165 22.9811V14.102C25.7165 12.5652 24.4707 11.3193 22.9339 11.3193Z" fill="url(#paint1_linear_271_1493)"/>
<g filter="url(#filter1_b_271_1493)">
<path d="M27.4383 15.5684H18.5591C17.0223 15.5684 15.7765 16.8142 15.7765 18.351V27.2301C15.7765 28.7669 17.0223 30.0128 18.5591 30.0128H27.4383C28.9751 30.0128 30.2209 28.7669 30.2209 27.2301V18.351C30.2209 16.8142 28.9751 15.5684 27.4383 15.5684Z" fill="url(#paint2_linear_271_1493)"/>
<path d="M27.4383 15.4404H18.5591C16.9516 15.4404 15.6485 16.7435 15.6485 18.351V27.2301C15.6485 28.8376 16.9516 30.1408 18.5591 30.1408H27.4383C29.0458 30.1408 30.3489 28.8376 30.3489 27.2301V18.351C30.3489 16.7435 29.0458 15.4404 27.4383 15.4404Z" stroke="url(#paint3_linear_271_1493)" stroke-width="0.256"/>
</g>
<path d="M23.7967 24.3955C23.7761 24.3955 23.756 24.3884 23.7399 24.3754C23.7237 24.3624 23.7125 24.3443 23.7079 24.324C23.6752 24.1808 23.675 24.032 23.7072 23.8887C23.7394 23.7453 23.8032 23.6111 23.8939 23.496C23.9845 23.3808 24.0998 23.2877 24.231 23.2235C24.3623 23.1593 24.5062 23.1256 24.6521 23.125C24.7981 23.1244 24.9423 23.1568 25.0741 23.22C25.2058 23.2831 25.3218 23.3752 25.4135 23.4896C25.5051 23.604 25.57 23.7376 25.6034 23.8807C25.6368 24.0238 25.6378 24.1725 25.6063 24.3161C25.6039 24.328 25.5992 24.3394 25.5923 24.3495C25.5855 24.3596 25.5768 24.3682 25.5666 24.3749C25.5565 24.3816 25.5451 24.3861 25.5331 24.3883C25.5212 24.3905 25.5089 24.3903 25.4971 24.3876C25.4853 24.385 25.4741 24.38 25.4641 24.373C25.4542 24.3659 25.4458 24.3569 25.4394 24.3466C25.433 24.3362 25.4287 24.3247 25.4267 24.3126C25.4248 24.3006 25.4252 24.2882 25.428 24.2763C25.452 24.1672 25.4529 24.0541 25.4306 23.9446C25.4084 23.835 25.3634 23.7314 25.2987 23.6405C25.234 23.5496 25.151 23.4735 25.0552 23.417C24.9593 23.3606 24.8527 23.3251 24.7423 23.3129C24.6319 23.3007 24.5202 23.3121 24.4145 23.3463C24.3088 23.3805 24.2114 23.4367 24.1286 23.5113C24.0459 23.586 23.9798 23.6773 23.9344 23.7794C23.8891 23.8815 23.8657 23.992 23.8656 24.1039C23.8656 24.1641 23.8723 24.2242 23.8856 24.283C23.8883 24.2947 23.8887 24.3069 23.8867 24.3188C23.8847 24.3307 23.8804 24.3421 23.874 24.3523C23.8677 24.3625 23.8594 24.3714 23.8496 24.3784C23.8398 24.3854 23.8288 24.3903 23.8171 24.393C23.8104 24.3946 23.8036 24.3955 23.7967 24.3955Z" fill="white"/>
<path d="M26.6993 25.0629C26.6926 25.0631 26.6858 25.0624 26.6793 25.0608C26.6557 25.0554 26.6352 25.0409 26.6223 25.0203C26.6093 24.9997 26.605 24.9748 26.6102 24.951C26.6359 24.8346 26.6354 24.7138 26.6086 24.5976C26.5818 24.4813 26.5295 24.3726 26.4554 24.2795C26.3814 24.1863 26.2876 24.1111 26.1808 24.0593C26.0741 24.0075 25.9572 23.9804 25.8387 23.9801C25.742 23.9798 25.6461 23.9975 25.5558 24.0322C25.5444 24.0378 25.532 24.041 25.5193 24.0415C25.5067 24.042 25.494 24.0399 25.4822 24.0352C25.4705 24.0305 25.4598 24.0235 25.4508 24.0144C25.4419 24.0053 25.4349 23.9945 25.4304 23.9826C25.4258 23.9707 25.4238 23.958 25.4244 23.9452C25.425 23.9325 25.4283 23.92 25.4339 23.9086C25.4396 23.8972 25.4475 23.8871 25.4573 23.8789C25.467 23.8708 25.4783 23.8647 25.4905 23.8612C25.6549 23.7981 25.8332 23.781 26.0065 23.8118C26.1798 23.8426 26.3415 23.92 26.4746 24.036C26.6076 24.152 26.7069 24.3021 26.762 24.4704C26.8171 24.6386 26.8259 24.8188 26.7874 24.9917C26.7828 25.0118 26.7716 25.0298 26.7556 25.0427C26.7396 25.0556 26.7198 25.0627 26.6993 25.0629Z" fill="white"/>
<path d="M26.6857 26.4236H23.9175C23.7526 26.4235 23.5899 26.3861 23.4412 26.3143C23.2926 26.2424 23.1619 26.1378 23.0587 26.0083C22.9555 25.8788 22.8825 25.7276 22.8451 25.5659C22.8076 25.4042 22.8067 25.2361 22.8423 25.074C22.878 24.9119 22.9493 24.7599 23.051 24.6292C23.1527 24.4985 23.2822 24.3925 23.4301 24.319C23.5779 24.2454 23.7402 24.2062 23.9051 24.2042C24.0699 24.2022 24.2331 24.2375 24.3827 24.3074C24.4037 24.3183 24.4197 24.3369 24.4273 24.3594C24.435 24.3819 24.4337 24.4065 24.4237 24.428C24.4138 24.4496 24.3959 24.4664 24.3739 24.475C24.3519 24.4835 24.3275 24.4832 24.3057 24.474C24.1809 24.4158 24.0447 24.3865 23.9072 24.3883C23.7697 24.39 23.6343 24.4228 23.511 24.4843C23.3877 24.5457 23.2797 24.6342 23.1949 24.7432C23.1101 24.8523 23.0506 24.9791 23.0209 25.1143C22.9912 25.2495 22.9919 25.3898 23.0232 25.5247C23.0544 25.6596 23.1152 25.7857 23.2013 25.8938C23.2873 26.0018 23.3963 26.0891 23.5203 26.1492C23.6442 26.2092 23.7799 26.2405 23.9175 26.2407H26.6857C26.8838 26.2397 27.0735 26.1605 27.2142 26.0201C27.3548 25.8796 27.4351 25.6892 27.4377 25.4898C27.4403 25.2903 27.3651 25.0978 27.2282 24.9537C27.0913 24.8096 26.9037 24.7253 26.7057 24.7191C26.6937 24.7187 26.6818 24.716 26.6708 24.7111C26.6599 24.7061 26.65 24.699 26.6417 24.6902C26.6335 24.6813 26.627 24.671 26.6227 24.6596C26.6185 24.6483 26.6165 24.6362 26.6169 24.6241C26.6171 24.612 26.6197 24.6 26.6246 24.5888C26.6295 24.5777 26.6365 24.5677 26.6453 24.5594C26.6541 24.551 26.6644 24.5445 26.6758 24.5403C26.6871 24.5361 26.6991 24.5341 26.7112 24.5346C26.9591 24.5392 27.1951 24.6425 27.3676 24.8218C27.5401 25.0011 27.6352 25.2419 27.6319 25.4916C27.6286 25.7413 27.5273 25.9795 27.3502 26.1542C27.173 26.3288 26.9344 26.4258 26.6865 26.4238L26.6857 26.4236Z" fill="white"/>
<path d="M22.5783 26.003C22.5749 26.0032 22.5714 26.0032 22.5679 26.003C21.7484 25.9085 20.992 25.5135 20.4432 24.8934C19.8943 24.2733 19.5913 23.4713 19.592 22.6406C19.592 20.7742 21.0998 19.2559 22.9531 19.2559C24.8065 19.2559 26.3142 20.7742 26.3142 22.6406C26.3143 22.8907 26.2871 23.1401 26.2329 23.3841C26.2269 23.4071 26.2123 23.4269 26.1921 23.4392C26.1719 23.4516 26.1478 23.4556 26.1247 23.4504C26.1017 23.4452 26.0816 23.4312 26.0685 23.4114C26.0555 23.3916 26.0506 23.3674 26.0549 23.3441C26.1061 23.1133 26.1319 22.8776 26.1318 22.6412C26.1318 20.8762 24.7059 19.4401 22.9531 19.4401C21.2003 19.4401 19.7746 20.8762 19.7746 22.6412C19.7741 23.4266 20.0607 24.1847 20.5796 24.7709C21.0986 25.3572 21.8137 25.7305 22.5885 25.8198C22.6114 25.8228 22.6323 25.8344 22.6471 25.8523C22.6618 25.8701 22.6693 25.893 22.668 25.9162C22.6668 25.9394 22.6568 25.9612 22.6401 25.9773C22.6235 25.9934 22.6014 26.0026 22.5783 26.003Z" fill="white"/>
<path d="M26.2231 22.7317H19.6833C19.6591 22.7317 19.6359 22.722 19.6188 22.7048C19.6017 22.6876 19.592 22.6642 19.592 22.6398C19.592 22.6154 19.6017 22.592 19.6188 22.5748C19.6359 22.5575 19.6591 22.5479 19.6833 22.5479H26.2231C26.2473 22.5479 26.2706 22.5575 26.2877 22.5748C26.3048 22.592 26.3144 22.6154 26.3144 22.6398C26.3144 22.6642 26.3048 22.6876 26.2877 22.7048C26.2706 22.722 26.2473 22.7317 26.2231 22.7317Z" fill="white"/>
<path d="M25.9467 21.4051C25.9359 21.4051 25.9252 21.4032 25.915 21.3994C23.9498 20.6669 21.9567 20.6669 19.9919 21.3994C19.9695 21.4068 19.9451 21.4051 19.9239 21.3948C19.9026 21.3845 19.8862 21.3662 19.878 21.344C19.8698 21.3217 19.8705 21.2971 19.8799 21.2753C19.8893 21.2535 19.9067 21.2363 19.9285 21.2271C21.9362 20.4789 23.9719 20.4791 25.9792 21.2271C25.9994 21.2345 26.0163 21.2489 26.027 21.2676C26.0378 21.2863 26.0416 21.3083 26.0378 21.3296C26.034 21.3509 26.0228 21.3701 26.0063 21.384C25.9898 21.3978 25.969 21.4053 25.9475 21.4051H25.9467Z" fill="white"/>
<path d="M22.5783 24.6075H22.574C21.6959 24.5665 20.8055 24.3795 19.9278 24.0528C19.906 24.0437 19.8886 24.0264 19.8792 24.0046C19.8698 23.9829 19.8691 23.9583 19.8773 23.936C19.8855 23.9137 19.9019 23.8955 19.9231 23.8851C19.9444 23.8748 19.9687 23.8731 19.9912 23.8805C20.8513 24.201 21.7232 24.3837 22.5825 24.424C22.5944 24.4243 22.6062 24.4269 22.6172 24.4318C22.6281 24.4366 22.638 24.4436 22.6463 24.4523C22.6545 24.4611 22.661 24.4713 22.6653 24.4826C22.6697 24.4938 22.6718 24.5058 22.6715 24.5178C22.6712 24.5299 22.6686 24.5418 22.6638 24.5528C22.6589 24.5638 22.652 24.5738 22.6433 24.5821C22.6347 24.5904 22.6245 24.5969 22.6133 24.6013C22.6022 24.6057 22.5903 24.6078 22.5783 24.6075Z" fill="white"/>
<path d="M24.3209 22.9657H24.3183C24.3063 22.9654 24.2944 22.9627 24.2835 22.9577C24.2725 22.9527 24.2626 22.9456 24.2544 22.9368C24.2462 22.928 24.2398 22.9176 24.2356 22.9062C24.2313 22.8949 24.2294 22.8828 24.2298 22.8708C24.2619 21.7414 24.0542 20.5959 23.6124 19.4657C23.6047 19.4433 23.606 19.4187 23.6158 19.3972C23.6257 19.3757 23.6434 19.3588 23.6653 19.3501C23.6872 19.3415 23.7116 19.3416 23.7334 19.3506C23.7552 19.3596 23.7726 19.3767 23.7822 19.3984C24.233 20.5517 24.445 21.7219 24.412 22.8759C24.4115 22.8999 24.4017 22.9227 24.3847 22.9395C24.3677 22.9563 24.3448 22.9657 24.3209 22.9657Z" fill="white"/>
<path d="M22.2092 25.9389C22.1909 25.9389 22.173 25.9334 22.1579 25.923C22.1428 25.9127 22.1311 25.898 22.1243 25.8808C21.2836 23.7302 21.2836 21.5496 22.1243 19.3989C22.1283 19.3872 22.1347 19.3764 22.1429 19.3672C22.1512 19.358 22.1612 19.3506 22.1724 19.3454C22.1836 19.3402 22.1957 19.3373 22.208 19.337C22.2203 19.3366 22.2326 19.3388 22.2441 19.3433C22.2555 19.3478 22.266 19.3547 22.2747 19.3634C22.2835 19.3721 22.2904 19.3825 22.2951 19.394C22.2998 19.4054 22.3021 19.4177 22.3019 19.4302C22.3018 19.4426 22.2991 19.4548 22.2941 19.4661C21.4707 21.5721 21.4707 23.7076 22.2941 25.8134C22.3029 25.8361 22.3025 25.8614 22.2928 25.8837C22.2832 25.9061 22.2651 25.9237 22.2426 25.9327C22.232 25.9369 22.2206 25.939 22.2092 25.9389Z" fill="white"/>
<defs>
<filter id="filter0_f_271_1493" x="0.736854" y="0.0563116" width="36.9725" height="36.9723" filterUnits="userSpaceOnUse" color-interpolation-filters="sRGB">
<feFlood flood-opacity="0" result="BackgroundImageFix"/>
<feBlend mode="normal" in="SourceGraphic" in2="BackgroundImageFix" result="shape"/>
<feGaussianBlur stdDeviation="5.632" result="effect1_foregroundBlur_271_1493"/>
</filter>
<filter id="filter1_b_271_1493" x="13.2165" y="13.0085" width="19.5644" height="19.5641" filterUnits="userSpaceOnUse" color-interpolation-filters="sRGB">
<feFlood flood-opacity="0" result="BackgroundImageFix"/>
<feGaussianBlur in="BackgroundImageFix" stdDeviation="1.152"/>
<feComposite in2="SourceAlpha" operator="in" result="effect1_backgroundBlur_271_1493"/>
<feBlend mode="normal" in="SourceGraphic" in2="effect1_backgroundBlur_271_1493" result="shape"/>
</filter>
<linearGradient id="paint0_linear_271_1493" x1="25.4125" y1="26.3387" x2="13.1897" y2="10.9432" gradientUnits="userSpaceOnUse">
<stop stop-color="#AA83FF"/>
<stop offset="1" stop-color="#FF3FA4"/>
</linearGradient>
<linearGradient id="paint1_linear_271_1493" x1="24.6837" y1="26.3377" x2="12.4609" y2="10.9422" gradientUnits="userSpaceOnUse">
<stop stop-color="#AA83FF"/>
<stop offset="1" stop-color="#FF3FA4"/>
</linearGradient>
<linearGradient id="paint2_linear_271_1493" x1="16.592" y1="29.1973" x2="29.4054" y2="16.3838" gradientUnits="userSpaceOnUse">
<stop stop-color="white" stop-opacity="0.2"/>
<stop offset="1" stop-color="white" stop-opacity="0.49"/>
</linearGradient>
<linearGradient id="paint3_linear_271_1493" x1="16.7961" y1="16.7044" x2="28.8703" y2="29.6144" gradientUnits="userSpaceOnUse">
<stop stop-color="white"/>
<stop offset="1" stop-color="white" stop-opacity="0"/>
</linearGradient>
</defs>
</svg>
